<svg width="115" height="48" viewBox="0 0 115 48" fill="none" xmlns="http://www.w3.org/2000/svg">
<g clip-path="url(#clip0_878_5504)">
<path d="M27.0364 47.5999H24.0438L23.485 46.2611H19.5399L18.9811 47.5999H15.9998L19.6187 40.0659H23.3613L27.0326 47.5999H27.0364ZM21.4262 41.7685L20.2412 44.5885H22.795L21.6175 41.7685L21.5275 41.5547H21.5087L21.4262 41.7685Z" fill="#999999"/>
<path d="M27.9888 47.5999V40.0659H33.5239C34.7277 40.0659 35.6615 40.3022 36.3215 40.7709C36.9853 41.2397 37.3153 41.9035 37.3153 42.7547C37.3153 43.321 37.169 43.8235 36.8803 44.2548C36.5878 44.686 36.1603 45.0235 35.594 45.2636C35.0277 45.5036 34.3415 45.6236 33.5464 45.6236H30.7189V47.5999H27.9925H27.9888ZM33.4452 43.7635C33.8389 43.7635 34.1239 43.6735 34.3077 43.4898C34.4915 43.306 34.5815 43.0735 34.5815 42.7885C34.5815 42.5522 34.4877 42.346 34.2965 42.1735C34.1089 42.001 33.8202 41.9147 33.4339 41.9147H30.7151V43.7598H33.4414L33.4452 43.7635Z" fill="#999999"/>
<path d="M40.4917 47.5999H37.1242L40.1767 43.8385L37.3867 40.0659H40.7543L42.3968 42.7547L42.4456 42.8747H42.4568L42.5168 42.7547L44.1481 40.0659H47.5157L44.7256 43.8385L47.7894 47.5999H44.4144L42.5093 44.8323L42.4568 44.7498H42.4456L42.3968 44.8323L40.4917 47.5999Z" fill="#999999"/>
<path d="M58.9686 47.5999H55.976L55.4173 46.2611H51.4722L50.9134 47.5999H47.9321L51.5509 40.0659H55.2935L58.9649 47.5999H58.9686ZM53.3622 41.7685L52.1772 44.5885H54.731L53.5535 41.7685L53.4635 41.5547H53.4447L53.3622 41.7685Z" fill="#999999"/>
<path d="M67.08 42.7096V40.062H69.7988V47.596H67.08V44.5621H62.6474V47.596H59.921V40.062H62.6474V42.7096H67.08Z" fill="#999999"/>
<path d="M79.0578 41.9297H74.3027V47.5999H71.5764V40.0659H79.0616V41.9335L79.0578 41.9297Z" fill="#999999"/>
<path d="M88.5078 47.5999H80.2426V40.0659H88.4066V41.911H82.9727V42.9347H87.9716V44.5585H82.9727V45.7548H88.5078V47.5999Z" fill="#999999"/>
<path d="M96.2857 40.062H92.5468L88.9242 47.5997H91.9056L94.3506 41.7683L94.4331 41.5545H94.4519L94.5419 41.7683L96.9682 47.5997H99.957L96.2857 40.062Z" fill="#999999"/>
<path d="M93.6534 33.6267H96.2484L85.5457 15.09L79.733 5.02473L77.1604 9.4836L72.0303 0.599609L64.2376 14.1L61.3763 9.14609H54.6786L51.7685 14.1787L43.9308 0.599609L38.8007 9.4836L36.2281 5.02473L30.4154 15.09L19.7127 33.6267H22.3077L27.2016 25.1553H29.7442L24.854 33.6267H27.4491L32.3392 25.1553H34.9606L30.1267 33.6267H32.718L34.9606 29.7491H55.5524L57.9824 33.938L60.4087 29.7491H81.0005L83.2431 33.6267H85.8344L81.0005 25.1553H83.6219L88.512 33.6267H91.1071L86.2169 25.1553H88.7595L93.6534 33.6267Z" fill="#999999"/>
<path d="M61.0687 6.47977L65.4375 3.53969L61.0687 0.599609H54.9823L50.6134 3.53969L54.9823 6.47977H61.0687ZM55.6685 2.84592H60.3824L61.4137 3.53969L60.3824 4.23346H55.6685L54.6372 3.53969L55.6685 2.84592Z" fill="#F3B300"/>
<path d="M93.6531 33.6267H96.2481L85.5453 15.09L79.7327 5.02473L77.1601 9.4836L72.03 0.599609L64.2373 14.1L61.376 9.14234H54.6783L51.7719 14.1787L43.9305 0.599609L38.8041 9.4836L36.2315 5.02473L30.4189 15.09L19.7161 33.6267H22.3112L27.2013 25.1553H29.7476L24.8575 33.6267H27.4526L32.3427 25.1553H34.964L30.1301 33.6267H32.7252L34.964 29.7454H55.5558L57.9859 33.9342L60.4159 29.7454H81.0077L83.2465 33.6267H85.8416L81.0077 25.1553H83.629L88.5192 33.6267H91.1143L86.2241 25.1553H88.7704L93.6606 33.6267H93.6531ZM79.7627 18.4838H77.1489L75.8513 16.2375L77.1564 13.9762L79.7589 18.4838H79.7627ZM73.23 16.29L71.9625 18.4876H69.5062L72.03 14.115L73.23 16.1925L73.185 16.2188L73.2263 16.2938L73.23 16.29ZM73.26 20.7301H75.7951L77.0514 22.909H72L73.2563 20.7301H73.26ZM61.4435 13.755L62.1297 14.9437L60.0784 18.4988H59.1484V14.8987L61.4435 13.755ZM55.9758 11.3924H60.0784L60.3184 11.8087L58.0271 12.9487L55.7358 11.8087L55.9758 11.3924ZM54.6108 13.755L56.9058 14.895V18.4951H55.9758L53.9245 14.94L54.6108 13.7512V13.755ZM38.8004 13.9762L40.1054 16.2375L38.8079 18.4838H36.194L38.7966 13.9762H38.8004ZM42.7305 16.1888L43.9305 14.1112L46.4543 18.4838H43.998L42.7305 16.2863L42.7717 16.2113L42.7267 16.185L42.7305 16.1888ZM43.9605 22.909H38.9091L40.1654 20.7301H42.7005L43.9567 22.909H43.9605ZM31.0414 22.909H28.4951L36.2278 9.51735L37.5028 11.7299L35.5603 15.0937H35.5528L31.0376 22.909H31.0414ZM33.6365 22.909L34.8927 20.7301H37.5141L36.2578 22.909H33.6365ZM51.6594 27.5028H36.254L37.6078 25.1553H47.8456L45.2918 20.7301H47.7481L51.6557 27.5028H51.6594ZM49.0494 18.4838L43.9305 9.6186L41.4067 13.9912L40.1016 11.7299L43.9342 5.09223L51.6669 18.4838H49.0531H49.0494ZM64.301 18.4838L72.0337 5.09223L75.8663 11.7299L74.5613 13.9912L72.0375 9.6186L66.9186 18.4838H64.3048H64.301ZM64.301 27.5028L68.2086 20.7301H70.665L68.1111 25.1553H78.3489L79.7027 27.5028H64.2973H64.301ZM79.7064 22.909L78.4502 20.7301H81.0715L82.3278 22.909H79.7064ZM84.9191 22.909L80.404 15.09H80.3965L78.4539 11.7299L79.7289 9.51735L87.4616 22.909H84.9153H84.9191Z" fill="#F3B300"/>
</g>
<defs>
<clipPath id="clip0_878_5504">
<rect width="115" height="47" fill="white" transform="translate(0 0.599609)"/>
</clipPath>
</defs>
</svg>
