<svg width="115" height="47" viewBox="0 0 115 47" fill="none" xmlns="http://www.w3.org/2000/svg">
<path d="M27.0364 47H24.0438L23.485 45.6612H19.5399L18.9811 47H15.9998L19.6187 39.4661H23.3613L27.0326 47H27.0364ZM21.4262 41.1686L20.2412 43.9887H22.795L21.6175 41.1686L21.5275 40.9548H21.5087L21.4262 41.1686Z" fill="white"/>
<path d="M27.9888 47V39.4661H33.5239C34.7277 39.4661 35.6615 39.7023 36.3215 40.1711C36.9853 40.6398 37.3153 41.3036 37.3153 42.1549C37.3153 42.7211 37.169 43.2237 36.8803 43.6549C36.5878 44.0862 36.1603 44.4237 35.594 44.6637C35.0277 44.9037 34.3415 45.0237 33.5464 45.0237H30.7189V47H27.9925H27.9888ZM33.4452 43.1637C33.8389 43.1637 34.1239 43.0736 34.3077 42.8899C34.4915 42.7061 34.5815 42.4736 34.5815 42.1886C34.5815 41.9524 34.4877 41.7461 34.2965 41.5736C34.1089 41.4011 33.8202 41.3149 33.4339 41.3149H30.7151V43.1599H33.4414L33.4452 43.1637Z" fill="white"/>
<path d="M40.4917 47H37.1242L40.1767 43.2387L37.3867 39.4661H40.7543L42.3968 42.1549L42.4456 42.2749H42.4568L42.5168 42.1549L44.1481 39.4661H47.5157L44.7256 43.2387L47.7894 47H44.4144L42.5093 44.2324L42.4568 44.1499H42.4456L42.3968 44.2324L40.4917 47Z" fill="white"/>
<path d="M58.9686 47H55.976L55.4173 45.6612H51.4722L50.9134 47H47.9321L51.5509 39.4661H55.2935L58.9649 47H58.9686ZM53.3622 41.1686L52.1772 43.9887H54.731L53.5535 41.1686L53.4635 40.9548H53.4447L53.3622 41.1686Z" fill="white"/>
<path d="M67.08 42.1099V39.4623H69.7988V46.9963H67.08V43.9624H62.6474V46.9963H59.921V39.4623H62.6474V42.1099H67.08Z" fill="white"/>
<path d="M79.0578 41.3299H74.3027V47H71.5764V39.4661H79.0616V41.3336L79.0578 41.3299Z" fill="white"/>
<path d="M88.5078 47H80.2426V39.4661H88.4066V41.3111H82.9727V42.3349H87.9716V43.9587H82.9727V45.155H88.5078V47Z" fill="white"/>
<path d="M96.2857 39.4623H92.5468L88.9242 47H91.9056L94.3506 41.1686L94.4331 40.9548H94.4519L94.5419 41.1686L96.9682 47H99.957L96.2857 39.4623Z" fill="white"/>
<path d="M93.6534 33.0271H96.2484L85.5457 14.4904L79.733 4.42512L77.1604 8.88399L72.0303 0L64.2376 13.5004L61.3763 8.54648H54.6786L51.7685 13.5791L43.9308 0L38.8007 8.88399L36.2281 4.42512L30.4154 14.4904L19.7127 33.0271H22.3077L27.2016 24.5557H29.7442L24.854 33.0271H27.4491L32.3392 24.5557H34.9606L30.1267 33.0271H32.718L34.9606 29.1495H55.5524L57.9824 33.3384L60.4087 29.1495H81.0005L83.2431 33.0271H85.8344L81.0005 24.5557H83.6219L88.512 33.0271H91.1071L86.2169 24.5557H88.7595L93.6534 33.0271Z" fill="white"/>
<path d="M61.0687 5.88016L65.4375 2.94008L61.0687 0H54.9823L50.6134 2.94008L54.9823 5.88016H61.0687ZM55.6685 2.24631H60.3824L61.4137 2.94008L60.3824 3.63385H55.6685L54.6372 2.94008L55.6685 2.24631Z" fill="#F3B300"/>
<path d="M93.6531 33.0271H96.2481L85.5453 14.4904L79.7327 4.42512L77.1601 8.88399L72.03 0L64.2373 13.5004L61.376 8.54273H54.6783L51.7719 13.5791L43.9305 0L38.8041 8.88399L36.2315 4.42512L30.4189 14.4904L19.7161 33.0271H22.3112L27.2013 24.5557H29.7476L24.8575 33.0271H27.4526L32.3427 24.5557H34.964L30.1301 33.0271H32.7252L34.964 29.1458H55.5558L57.9859 33.3346L60.4159 29.1458H81.0077L83.2465 33.0271H85.8416L81.0077 24.5557H83.629L88.5192 33.0271H91.1143L86.2241 24.5557H88.7704L93.6606 33.0271H93.6531ZM79.7627 17.8842H77.1489L75.8513 15.6379L77.1564 13.3766L79.7589 17.8842H79.7627ZM73.23 15.6904L71.9625 17.888H69.5062L72.03 13.5154L73.23 15.5929L73.185 15.6192L73.2263 15.6942L73.23 15.6904ZM73.26 20.1305H75.7951L77.0514 22.3093H72L73.2563 20.1305H73.26ZM61.4435 13.1554L62.1297 14.3441L60.0784 17.8992H59.1484V14.2991L61.4435 13.1554ZM55.9758 10.7928H60.0784L60.3184 11.209L58.0271 12.3491L55.7358 11.209L55.9758 10.7928ZM54.6108 13.1554L56.9058 14.2954V17.8955H55.9758L53.9245 14.3404L54.6108 13.1516V13.1554ZM38.8004 13.3766L40.1054 15.6379L38.8079 17.8842H36.194L38.7966 13.3766H38.8004ZM42.7305 15.5892L43.9305 13.5116L46.4543 17.8842H43.998L42.7305 15.6867L42.7717 15.6117L42.7267 15.5854L42.7305 15.5892ZM43.9605 22.3093H38.9091L40.1654 20.1305H42.7005L43.9567 22.3093H43.9605ZM31.0414 22.3093H28.4951L36.2278 8.91774L37.5028 11.1303L35.5603 14.4941H35.5528L31.0376 22.3093H31.0414ZM33.6365 22.3093L34.8927 20.1305H37.5141L36.2578 22.3093H33.6365ZM51.6594 26.9032H36.254L37.6078 24.5557H47.8456L45.2918 20.1305H47.7481L51.6557 26.9032H51.6594ZM49.0494 17.8842L43.9305 9.01899L41.4067 13.3916L40.1016 11.1303L43.9342 4.49262L51.6669 17.8842H49.0531H49.0494ZM64.301 17.8842L72.0337 4.49262L75.8663 11.1303L74.5613 13.3916L72.0375 9.01899L66.9186 17.8842H64.3048H64.301ZM64.301 26.9032L68.2086 20.1305H70.665L68.1111 24.5557H78.3489L79.7027 26.9032H64.2973H64.301ZM79.7064 22.3093L78.4502 20.1305H81.0715L82.3278 22.3093H79.7064ZM84.9191 22.3093L80.404 14.4904H80.3965L78.4539 11.1303L79.7289 8.91774L87.4616 22.3093H84.9153H84.9191Z" fill="#F3B300"/>
</svg>
