<svg width="444" height="392" viewBox="0 0 444 392" fill="none" xmlns="http://www.w3.org/2000/svg">
<g filter="url(#filter0_d_2580_5287)">
<rect x="2" y="1" width="440" height="180" rx="10" fill="#181818" shape-rendering="crispEdges"/>
<rect x="2.5" y="1.5" width="439" height="179" rx="9.5" stroke="#2B2D2F" shape-rendering="crispEdges"/>
<path d="M26.3842 25.5746C26.2955 25.2869 26.1729 25.0295 26.0167 24.8022C25.864 24.5714 25.6793 24.3743 25.4627 24.2109C25.2496 24.0476 25.0046 23.9251 24.7276 23.8434C24.4506 23.7582 24.1488 23.7156 23.8221 23.7156C23.2362 23.7156 22.7141 23.8629 22.256 24.1577C21.7979 24.4524 21.4375 24.8857 21.1747 25.4574C20.9155 26.0256 20.7859 26.718 20.7859 27.5348C20.7859 28.3587 20.9155 29.0565 21.1747 29.6282C21.4339 30.1999 21.7944 30.6349 22.256 30.9332C22.7177 31.228 23.2539 31.3754 23.8647 31.3754C24.4187 31.3754 24.8981 31.2688 25.3029 31.0558C25.7113 30.8427 26.0256 30.5408 26.2457 30.1502C26.4659 29.756 26.576 29.2944 26.576 28.7653L27.0234 28.8345H24.0618V27.2898H28.4883V28.6001C28.4883 29.5341 28.2894 30.342 27.8917 31.0238C27.494 31.7056 26.9471 32.2312 26.2511 32.6005C25.555 32.9663 24.756 33.1491 23.854 33.1491C22.8491 33.1491 21.9666 32.9237 21.2067 32.4727C20.4503 32.0181 19.859 31.3736 19.4329 30.5391C19.0103 29.701 18.799 28.7067 18.799 27.5561C18.799 26.6754 18.9233 25.8888 19.1719 25.1964C19.424 24.5039 19.7756 23.9162 20.2266 23.4332C20.6776 22.9467 21.2067 22.5774 21.8139 22.3253C22.4212 22.0696 23.0817 21.9418 23.7955 21.9418C24.3991 21.9418 24.962 22.0305 25.484 22.2081C26.006 22.3821 26.4695 22.6307 26.8743 22.9538C27.2827 23.277 27.6183 23.6605 27.881 24.1044C28.1438 24.5483 28.3161 25.0384 28.3977 25.5746H26.3842ZM30.314 33V24.8182H32.1837V26.1818H32.2689C32.4181 25.7095 32.6737 25.3455 33.036 25.0898C33.4017 24.8306 33.819 24.701 34.2877 24.701C34.3943 24.701 34.5132 24.7063 34.6446 24.717C34.7796 24.7241 34.8914 24.7365 34.9802 24.7543V26.5281C34.8985 26.4996 34.7689 26.4748 34.5914 26.4535C34.4173 26.4286 34.2487 26.4162 34.0853 26.4162C33.7338 26.4162 33.4177 26.4925 33.1372 26.6452C32.8602 26.7944 32.6418 27.0021 32.482 27.2685C32.3222 27.5348 32.2423 27.842 32.2423 28.19V33H30.314ZM38.4692 33.1651C37.9507 33.1651 37.4838 33.0728 37.0683 32.8881C36.6563 32.6999 36.3296 32.4229 36.0882 32.0572C35.8502 31.6914 35.7313 31.2404 35.7313 30.7042C35.7313 30.2425 35.8165 29.8608 35.9869 29.5589C36.1574 29.2571 36.39 29.0156 36.6847 28.8345C36.9795 28.6534 37.3115 28.5167 37.6808 28.4244C38.0537 28.3285 38.439 28.2592 38.8367 28.2166C39.3161 28.1669 39.705 28.1225 40.0033 28.0835C40.3016 28.0408 40.5182 27.9769 40.6531 27.8917C40.7916 27.8029 40.8609 27.6662 40.8609 27.4815V27.4496C40.8609 27.0483 40.7419 26.7376 40.504 26.5174C40.2661 26.2972 39.9234 26.1871 39.4759 26.1871C39.0036 26.1871 38.629 26.2901 38.352 26.4961C38.0786 26.7021 37.8939 26.9453 37.798 27.2259L35.9976 26.9702C36.1396 26.473 36.374 26.0575 36.7007 25.7237C37.0274 25.3864 37.4269 25.1342 37.8992 24.9673C38.3715 24.7969 38.8936 24.7116 39.4653 24.7116C39.8595 24.7116 40.2519 24.7578 40.6425 24.8501C41.0331 24.9425 41.39 25.0952 41.7132 25.3082C42.0363 25.5178 42.2955 25.8036 42.4909 26.1658C42.6897 26.5281 42.7892 26.9808 42.7892 27.5241V33H40.9355V31.8761H40.8715C40.7544 32.1033 40.5892 32.3164 40.3762 32.5153C40.1666 32.7106 39.9021 32.8686 39.5825 32.9893C39.2664 33.1065 38.8953 33.1651 38.4692 33.1651ZM38.9699 31.7482C39.357 31.7482 39.6926 31.6719 39.9767 31.5192C40.2607 31.3629 40.4791 31.157 40.6318 30.9013C40.7881 30.6456 40.8662 30.3668 40.8662 30.065V29.1009C40.8058 29.1506 40.7029 29.1967 40.5573 29.2393C40.4152 29.282 40.2554 29.3192 40.0779 29.3512C39.9003 29.3832 39.7245 29.4116 39.5505 29.4364C39.3765 29.4613 39.2256 29.4826 39.0977 29.5004C38.8101 29.5394 38.5526 29.6033 38.3254 29.6921C38.0981 29.7809 37.9188 29.9052 37.7874 30.065C37.656 30.2212 37.5903 30.4237 37.5903 30.6722C37.5903 31.0273 37.7199 31.2955 37.9791 31.4766C38.2384 31.6577 38.5686 31.7482 38.9699 31.7482ZM44.7281 36.0682V24.8182H46.6244V26.1712H46.7362C46.8357 25.9723 46.9759 25.761 47.157 25.5373C47.3382 25.31 47.5832 25.1165 47.8921 24.9567C48.2011 24.7933 48.5953 24.7116 49.0747 24.7116C49.7068 24.7116 50.2767 24.8732 50.7845 25.1964C51.2959 25.516 51.7007 25.9901 51.999 26.6186C52.3009 27.2436 52.4518 28.0107 52.4518 28.9197C52.4518 29.8182 52.3044 30.5817 52.0097 31.2102C51.7149 31.8388 51.3137 32.3182 50.8058 32.6484C50.298 32.9787 49.7227 33.1438 49.08 33.1438C48.6112 33.1438 48.2224 33.0657 47.9134 32.9094C47.6045 32.7532 47.3559 32.565 47.1677 32.3448C46.983 32.1211 46.8392 31.9098 46.7362 31.7109H46.6563V36.0682H44.7281ZM46.6191 28.9091C46.6191 29.4382 46.6936 29.9016 46.8428 30.2994C46.9955 30.6971 47.2139 31.0078 47.498 31.2315C47.7856 31.4517 48.1336 31.5618 48.542 31.5618C48.9681 31.5618 49.325 31.4482 49.6127 31.2209C49.9003 30.9901 50.1169 30.6758 50.2625 30.2781C50.4117 29.8768 50.4862 29.4205 50.4862 28.9091C50.4862 28.4013 50.4134 27.9503 50.2678 27.5561C50.1222 27.1619 49.9056 26.853 49.618 26.6293C49.3303 26.4055 48.9717 26.2937 48.542 26.2937C48.1301 26.2937 47.7803 26.402 47.4926 26.6186C47.205 26.8352 46.9866 27.1388 46.8374 27.5295C46.6919 27.9201 46.6191 28.38 46.6191 28.9091ZM56.0313 28.206V33H54.1031V22.0909H55.9887V26.2085H56.0846C56.2764 25.7468 56.5729 25.3828 56.9742 25.1165C57.379 24.8466 57.8939 24.7116 58.5189 24.7116C59.0871 24.7116 59.5825 24.8306 60.0051 25.0685C60.4276 25.3065 60.7544 25.6545 60.9852 26.1126C61.2195 26.5707 61.3367 27.13 61.3367 27.7905V33H59.4085V28.0888C59.4085 27.5384 59.2664 27.1104 58.9823 26.805C58.7018 26.4961 58.3076 26.3416 57.7998 26.3416C57.4589 26.3416 57.1535 26.4162 56.8836 26.5653C56.6173 26.7109 56.4078 26.9222 56.2551 27.1992C56.1059 27.4762 56.0313 27.8118 56.0313 28.206Z" fill="#F9F9F9"/>
<path d="M415.558 27.6838H416.191M415.558 28.3166H416.191M409.652 27.6838H410.285M409.652 28.3166H410.285M421.465 27.6838H422.097M421.465 28.3166H422.097M416.719 28.0002C416.719 28.4662 416.341 28.844 415.875 28.844C415.409 28.844 415.031 28.4662 415.031 28.0002C415.031 27.5343 415.409 27.1565 415.875 27.1565C416.341 27.1565 416.719 27.5343 416.719 28.0002ZM410.812 28.0002C410.812 28.4662 410.435 28.844 409.969 28.844C409.503 28.844 409.125 28.4662 409.125 28.0002C409.125 27.5343 409.503 27.1565 409.969 27.1565C410.435 27.1565 410.812 27.5343 410.812 28.0002ZM422.625 28.0002C422.625 28.4662 422.247 28.844 421.781 28.844C421.315 28.844 420.937 28.4662 420.937 28.0002C420.937 27.5343 421.315 27.1565 421.781 27.1565C422.247 27.1565 422.625 27.5343 422.625 28.0002Z" stroke="#5F6D7E" stroke-width="1.6875" stroke-linecap="round"/>
<path d="M19.1186 79L19.1186 68.8182L20.6548 68.8182L20.6548 77.6776L25.2685 77.6776L25.2685 79L19.1186 79ZM29.0239 79.169C28.54 79.169 28.1025 79.0795 27.7114 78.9006C27.3203 78.7183 27.0104 78.4548 26.7817 78.1101C26.5564 77.7654 26.4437 77.3428 26.4437 76.8423C26.4437 76.4115 26.5265 76.0568 26.6923 75.7784C26.858 75.5 27.0817 75.2796 27.3634 75.1172C27.6451 74.9548 27.96 74.8321 28.308 74.7493C28.656 74.6664 29.0107 74.6035 29.3719 74.5604C29.8293 74.5073 30.2005 74.4643 30.4856 74.4311C30.7706 74.3946 30.9778 74.3366 31.107 74.2571C31.2363 74.1776 31.3009 74.0483 31.3009 73.8693L31.3009 73.8345C31.3009 73.4003 31.1783 73.0639 30.933 72.8253C30.6911 72.5866 30.3298 72.4673 29.8492 72.4673C29.3487 72.4673 28.9543 72.5784 28.666 72.8004C28.3809 73.0192 28.1837 73.2628 28.0744 73.5312L26.6773 73.2131C26.8431 72.7491 27.085 72.3745 27.4032 72.0895C27.7247 71.8011 28.0942 71.5923 28.5119 71.4631C28.9295 71.3305 29.3686 71.2642 29.8293 71.2642C30.1343 71.2642 30.4574 71.3007 30.7988 71.3736C31.1435 71.4432 31.465 71.5724 31.7633 71.7614C32.0649 71.9503 32.3118 72.2204 32.504 72.5717C32.6963 72.9197 32.7924 73.3722 32.7924 73.929L32.7924 79L31.3407 79L31.3407 77.956L31.281 77.956C31.1849 78.1482 31.0407 78.3371 30.8485 78.5227C30.6563 78.7083 30.4094 78.8625 30.1077 78.9851C29.8061 79.1077 29.4449 79.169 29.0239 79.169ZM29.3471 77.9759C29.7581 77.9759 30.1094 77.8946 30.4011 77.7322C30.696 77.5698 30.9198 77.3577 31.0722 77.0959C31.228 76.8307 31.3059 76.5473 31.3059 76.2457L31.3059 75.2614C31.2529 75.3144 31.1501 75.3641 30.9977 75.4105C30.8485 75.4536 30.6778 75.4917 30.4856 75.5249C30.2933 75.5547 30.1061 75.5829 29.9238 75.6094C29.7415 75.6326 29.589 75.6525 29.4664 75.669C29.1781 75.7055 28.9146 75.7668 28.6759 75.853C28.4406 75.9392 28.2517 76.0634 28.1092 76.2259C27.97 76.3849 27.9004 76.5971 27.9004 76.8622C27.9004 77.2301 28.0362 77.5085 28.308 77.6974C28.5798 77.883 28.9262 77.9759 29.3471 77.9759ZM40.3946 73.228L39.0473 73.4666C38.991 73.2943 38.9015 73.1302 38.7789 72.9744C38.6596 72.8187 38.4971 72.6911 38.2917 72.5916C38.0862 72.4922 37.8293 72.4425 37.5211 72.4425C37.1001 72.4425 36.7488 72.5369 36.4671 72.7259C36.1854 72.9115 36.0445 73.1518 36.0445 73.4467C36.0445 73.7019 36.139 73.9074 36.3279 74.0632C36.5168 74.219 36.8217 74.3466 37.2426 74.446L38.4557 74.7244C39.1584 74.8868 39.682 75.1371 40.0267 75.4751C40.3714 75.8132 40.5438 76.2524 40.5438 76.7926C40.5438 77.25 40.4112 77.6577 40.1461 78.0156C39.8842 78.3703 39.518 78.6487 39.0473 78.8509C38.58 79.053 38.0381 79.1541 37.4216 79.1541C36.5665 79.1541 35.8688 78.9718 35.3286 78.6072C34.7883 78.2393 34.4569 77.7173 34.3343 77.0412L35.7711 76.8224C35.8605 77.197 36.0445 77.4803 36.3229 77.6726C36.6013 77.8615 36.9642 77.956 37.4117 77.956C37.8989 77.956 38.2883 77.8549 38.58 77.6527C38.8717 77.4472 39.0175 77.197 39.0175 76.902C39.0175 76.6634 38.928 76.4628 38.749 76.3004C38.5734 76.138 38.3033 76.0154 37.9387 75.9325L36.6461 75.6491C35.9335 75.4867 35.4065 75.2282 35.0651 74.8736C34.727 74.5189 34.558 74.0698 34.558 73.5263C34.558 73.0755 34.6839 72.6811 34.9358 72.343C35.1877 72.005 35.5357 71.7415 35.9799 71.5526C36.424 71.3603 36.9328 71.2642 37.5061 71.2642C38.3314 71.2642 38.981 71.4432 39.455 71.8011C39.929 72.1558 40.2422 72.6314 40.3946 73.228ZM45.6428 71.3636L45.6428 72.5568L41.4717 72.5568L41.4717 71.3636L45.6428 71.3636ZM42.5903 69.5341L44.0768 69.5341L44.0768 76.7578C44.0768 77.0462 44.1199 77.2633 44.206 77.4091C44.2922 77.5516 44.4032 77.6494 44.5391 77.7024C44.6783 77.7521 44.8291 77.777 44.9915 77.777C45.1109 77.777 45.2153 77.7687 45.3048 77.7521C45.3942 77.7356 45.4638 77.7223 45.5136 77.7124L45.782 78.9403C45.6959 78.9735 45.5732 79.0066 45.4141 79.0398C45.255 79.0762 45.0562 79.0961 44.8175 79.0994C44.4264 79.1061 44.0619 79.0365 43.7238 78.8906C43.3857 78.7448 43.1123 78.5194 42.9035 78.2145C42.6947 77.9096 42.5903 77.5268 42.5903 77.0661L42.5903 69.5341ZM50.9116 68.8182L52.7759 68.8182L56.0174 76.733L56.1367 76.733L59.3782 68.8182L61.2425 68.8182L61.2425 79L59.7809 79L59.7809 71.6321L59.6864 71.6321L56.6836 78.9851L55.4705 78.9851L52.4677 71.6271L52.3732 71.6271L52.3732 79L50.9116 79L50.9116 68.8182ZM66.4733 79.1541C65.7574 79.1541 65.1327 78.9901 64.599 78.6619C64.0654 78.3338 63.6511 77.8748 63.3561 77.2848C63.0612 76.6948 62.9137 76.0054 62.9137 75.2166C62.9137 74.4245 63.0612 73.7318 63.3561 73.1385C63.6511 72.5452 64.0654 72.0845 64.599 71.7564C65.1327 71.4283 65.7574 71.2642 66.4733 71.2642C67.1892 71.2642 67.814 71.4283 68.3476 71.7564C68.8812 72.0845 69.2955 72.5452 69.5905 73.1385C69.8855 73.7318 70.033 74.4245 70.033 75.2166C70.033 76.0054 69.8855 76.6948 69.5905 77.2848C69.2955 77.8748 68.8812 78.3338 68.3476 78.6619C67.814 78.9901 67.1892 79.1541 66.4733 79.1541ZM66.4783 77.9062C66.9423 77.9062 67.3268 77.7836 67.6317 77.5384C67.9366 77.2931 68.162 76.9666 68.3078 76.5589C68.457 76.1513 68.5316 75.7022 68.5316 75.2116C68.5316 74.7244 68.457 74.277 68.3078 73.8693C68.162 73.4583 67.9366 73.1285 67.6317 72.88C67.3268 72.6314 66.9423 72.5071 66.4783 72.5071C66.011 72.5071 65.6232 72.6314 65.315 72.88C65.01 73.1286 64.783 73.4583 64.6338 73.8693C64.488 74.277 64.4151 74.7244 64.4151 75.2116C64.4151 75.7022 64.488 76.1513 64.6338 76.5589C64.783 76.9666 65.01 77.2931 65.315 77.5384C65.6232 77.7836 66.011 77.9062 66.4783 77.9062ZM73.0788 74.4659L73.0788 79L71.5923 79L71.5923 71.3636L73.0191 71.3636L73.0191 72.6065L73.1136 72.6065C73.2892 72.2022 73.5643 71.8774 73.9388 71.6321C74.3167 71.3868 74.7923 71.2642 75.3657 71.2642C75.8861 71.2642 76.3418 71.3736 76.7329 71.5923C77.124 71.8078 77.4272 72.1293 77.6427 72.5568C77.8581 72.9844 77.9658 73.513 77.9658 74.1428L77.9658 79L76.4793 79L76.4793 74.3217C76.4793 73.7682 76.3352 73.3357 76.0468 73.0241C75.7585 72.7093 75.3624 72.5518 74.8586 72.5518C74.5139 72.5518 74.2073 72.6264 73.9388 72.7756C73.6737 72.9247 73.4632 73.1435 73.3075 73.4318C73.155 73.7169 73.0788 74.0616 73.0788 74.4659ZM83.4241 71.3636L83.4241 72.5568L79.2529 72.5568L79.2529 71.3636L83.4241 71.3636ZM80.3715 69.5341L81.858 69.5341L81.858 76.7578C81.858 77.0462 81.9011 77.2633 81.9873 77.4091C82.0735 77.5516 82.1845 77.6494 82.3204 77.7024C82.4596 77.7521 82.6104 77.777 82.7728 77.777C82.8921 77.777 82.9965 77.7687 83.086 77.7521C83.1755 77.7356 83.2451 77.7223 83.2948 77.7124L83.5633 78.9403C83.4771 78.9735 83.3545 79.0066 83.1954 79.0398C83.0363 79.0762 82.8374 79.0961 82.5988 79.0994C82.2077 79.1061 81.8431 79.0365 81.505 78.8906C81.167 78.7448 80.8935 78.5194 80.6847 78.2145C80.4759 77.9096 80.3715 77.5268 80.3715 77.066L80.3715 69.5341ZM86.619 74.4659L86.619 79L85.1325 79L85.1325 68.8182L86.5991 68.8182L86.5991 72.6065L86.6936 72.6065C86.8725 72.1955 87.146 71.8691 87.5139 71.6271C87.8818 71.3852 88.3624 71.2642 88.9556 71.2642C89.4793 71.2642 89.9367 71.3719 90.3278 71.5874C90.7222 71.8028 91.0271 72.1243 91.2426 72.5518C91.4613 72.9761 91.5707 73.5064 91.5707 74.1428L91.5707 79L90.0842 79L90.0842 74.3217C90.0842 73.7616 89.94 73.3274 89.6517 73.0192C89.3633 72.7076 88.9623 72.5518 88.4485 72.5518C88.0972 72.5518 87.7823 72.6264 87.5039 72.7756C87.2288 72.9247 87.0118 73.1435 86.8527 73.4318C86.6969 73.7169 86.619 74.0616 86.619 74.4659Z" fill="#858C95"/>
<path d="M26.4915 114.545L26.4915 89.0909L28.1222 89.0909L28.1222 114.545L26.4915 114.545ZM30.8168 97.4929C30.7372 96.6908 30.3958 96.0677 29.7926 95.6236C29.1894 95.1794 28.3707 94.9574 27.3366 94.9574C26.634 94.9574 26.0407 95.0568 25.5568 95.2557C25.0729 95.4479 24.7017 95.7164 24.4432 96.0611C24.1913 96.4058 24.0653 96.7969 24.0653 97.2344C24.0521 97.599 24.1283 97.9171 24.294 98.1889C24.4664 98.4607 24.7017 98.696 25 98.8949C25.2983 99.0871 25.643 99.2562 26.0341 99.402C26.4252 99.5412 26.8428 99.6605 27.2869 99.7599L29.1165 100.197C30.0047 100.396 30.8201 100.661 31.5625 100.993C32.3049 101.324 32.9479 101.732 33.4915 102.216C34.035 102.7 34.456 103.27 34.7543 103.926C35.0592 104.582 35.215 105.335 35.2216 106.183C35.215 107.429 34.8968 108.51 34.267 109.425C33.6439 110.333 32.7424 111.039 31.5625 111.543C30.3892 112.04 28.974 112.288 27.3168 112.288C25.6728 112.288 24.241 112.036 23.0213 111.533C21.8082 111.029 20.8603 110.283 20.1776 109.295C19.5014 108.301 19.1468 107.071 19.1136 105.607L23.2798 105.607C23.3262 106.289 23.5218 106.859 23.8665 107.317C24.2178 107.768 24.6851 108.109 25.2685 108.341C25.8584 108.566 26.5246 108.679 27.267 108.679C27.9962 108.679 28.6293 108.573 29.1662 108.361C29.7098 108.149 30.1307 107.854 30.429 107.476C30.7273 107.098 30.8764 106.664 30.8764 106.173C30.8764 105.716 30.7405 105.331 30.4687 105.02C30.2036 104.708 29.8125 104.443 29.2955 104.224C28.785 104.006 28.1586 103.807 27.4162 103.628L25.1989 103.071C23.482 102.653 22.1264 102 21.1321 101.112C20.1378 100.224 19.6439 99.0275 19.6506 97.5227C19.6439 96.2898 19.9721 95.2126 20.6349 94.2912C21.3045 93.3698 22.2225 92.6506 23.3892 92.1335C24.5559 91.6165 25.8816 91.358 27.3665 91.358C28.8778 91.358 30.197 91.6165 31.3239 92.1335C32.4574 92.6506 33.339 93.3698 33.9687 94.2912C34.5985 95.2126 34.9233 96.2798 34.9432 97.4929L30.8168 97.4929ZM46.4376 91.6364L46.4376 112L42.1322 112L42.1322 95.723L42.0129 95.723L37.3495 98.6463L37.3495 94.8281L42.3907 91.6364L46.4376 91.6364ZM58.3844 112.278C56.8996 112.278 55.5771 112.023 54.4171 111.513C53.2637 110.996 52.3522 110.286 51.6827 109.385C51.0198 108.477 50.6785 107.429 50.6586 106.243L54.9938 106.243C55.0203 106.74 55.1827 107.178 55.481 107.555C55.7859 107.927 56.1903 108.215 56.6941 108.42C57.1979 108.626 57.7646 108.729 58.3944 108.729C59.0506 108.729 59.6306 108.613 60.1344 108.381C60.6382 108.149 61.0326 107.827 61.3177 107.416C61.6027 107.005 61.7452 106.531 61.7452 105.994C61.7452 105.451 61.5928 104.97 61.2878 104.553C60.9895 104.128 60.5587 103.797 59.9952 103.558C59.4384 103.32 58.7755 103.2 58.0066 103.2L56.1074 103.2L56.1074 100.038L58.0066 100.038C58.6562 100.038 59.2296 99.9257 59.7268 99.7003C60.2305 99.4749 60.6216 99.1634 60.9001 98.7656C61.1785 98.3613 61.3177 97.8906 61.3177 97.3537C61.3177 96.8433 61.195 96.3958 60.9498 96.0114C60.7111 95.6203 60.3731 95.3153 59.9356 95.0966C59.5047 94.8778 59.0009 94.7685 58.4242 94.7685C57.8409 94.7685 57.3073 94.8745 56.8234 95.0866C56.3395 95.2921 55.9517 95.5871 55.66 95.9716C55.3683 96.3561 55.2126 96.8068 55.1927 97.3239L51.0662 97.3239C51.0861 96.1506 51.4209 95.1165 52.0705 94.2216C52.7201 93.3267 53.5951 92.6274 54.6955 92.1236C55.8025 91.6132 57.052 91.358 58.4441 91.358C59.8494 91.358 61.079 91.6132 62.133 92.1236C63.187 92.634 64.0056 93.3234 64.589 94.1918C65.1789 95.0535 65.4706 96.0213 65.464 97.0952C65.4706 98.2353 65.116 99.1866 64.4001 99.9489C63.6908 100.711 62.7661 101.195 61.6259 101.401L61.6259 101.56C63.124 101.752 64.2642 102.272 65.0464 103.121C65.8352 103.963 66.2263 105.017 66.2197 106.283C66.2263 107.443 65.8915 108.473 65.2154 109.375C64.5459 110.277 63.6212 110.986 62.4412 111.503C61.2613 112.02 59.9091 112.278 58.3844 112.278ZM76.332 112.278C74.9267 112.278 73.6738 112.02 72.5735 111.503C71.4797 110.986 70.6113 110.273 69.9683 109.365C69.3253 108.457 68.9906 107.416 68.9641 106.243L73.1402 106.243C73.1866 107.032 73.5181 107.671 74.1345 108.162C74.751 108.652 75.4835 108.898 76.332 108.898C77.0081 108.898 77.6047 108.749 78.1217 108.45C78.6454 108.145 79.0531 107.724 79.3448 107.187C79.6431 106.644 79.7922 106.021 79.7922 105.318C79.7922 104.602 79.6397 103.973 79.3348 103.429C79.0365 102.885 78.6222 102.461 78.0919 102.156C77.5616 101.851 76.9551 101.696 76.2723 101.689C75.6757 101.689 75.0957 101.812 74.5323 102.057C73.9754 102.302 73.5413 102.637 73.2297 103.061L69.4016 102.375L70.3661 91.6364L82.8149 91.6364L82.8149 95.1562L73.9158 95.1562L73.3888 100.257L73.5081 100.257C73.8661 99.7533 74.4063 99.3357 75.1289 99.0043C75.8514 98.6728 76.6601 98.5071 77.555 98.5071C78.7813 98.5071 79.8751 98.7955 80.8362 99.3722C81.7974 99.9489 82.5564 100.741 83.1132 101.749C83.67 102.75 83.9451 103.903 83.9385 105.209C83.9451 106.581 83.627 107.801 82.984 108.868C82.3476 109.929 81.456 110.764 80.3092 111.374C79.1691 111.977 77.8433 112.278 76.332 112.278ZM90.5086 109.216L90.3992 110.31C90.313 111.185 90.1473 112.056 89.902 112.925C89.6634 113.8 89.4115 114.592 89.1463 115.301C88.8878 116.01 88.679 116.567 88.5199 116.972L85.7756 116.972C85.875 116.58 86.0109 116.034 86.1833 115.331C86.3556 114.635 86.518 113.853 86.6705 112.984C86.823 112.116 86.9191 111.231 86.9588 110.33L87.0086 109.216L90.5086 109.216ZM93.6134 108.42L93.6134 105.03L102.115 91.6364L105.038 91.6364L105.038 96.3295L103.308 96.3295L97.9487 104.811L97.9487 104.97L110.03 104.97L110.03 108.42L93.6134 108.42ZM103.388 112L103.388 107.386L103.467 105.885L103.467 91.6364L107.504 91.6364L107.504 112L103.388 112ZM119.916 112.278C118.51 112.278 117.258 112.02 116.157 111.503C115.063 110.986 114.195 110.273 113.552 109.365C112.909 108.457 112.574 107.416 112.548 106.243L116.724 106.243C116.77 107.032 117.102 107.671 117.718 108.162C118.335 108.652 119.067 108.898 119.916 108.898C120.592 108.898 121.188 108.749 121.706 108.45C122.229 108.145 122.637 107.724 122.929 107.187C123.227 106.644 123.376 106.021 123.376 105.318C123.376 104.602 123.223 103.973 122.919 103.429C122.62 102.885 122.206 102.461 121.676 102.156C121.145 101.851 120.539 101.696 119.856 101.689C119.259 101.689 118.679 101.812 118.116 102.057C117.559 102.302 117.125 102.637 116.813 103.061L112.985 102.375L113.95 91.6364L126.399 91.6364L126.399 95.1562L117.5 95.1562L116.973 100.257L117.092 100.257C117.45 99.7533 117.99 99.3357 118.713 99.0043C119.435 98.6728 120.244 98.5071 121.139 98.5071C122.365 98.5071 123.459 98.7954 124.42 99.3722C125.381 99.9489 126.14 100.741 126.697 101.749C127.254 102.75 127.529 103.903 127.522 105.209C127.529 106.581 127.211 107.801 126.568 108.868C125.931 109.928 125.04 110.764 123.893 111.374C122.753 111.977 121.427 112.278 119.916 112.278ZM138.089 112.447C136.379 112.441 134.908 112.02 133.675 111.185C132.448 110.349 131.504 109.14 130.841 107.555C130.185 105.971 129.86 104.065 129.866 101.838C129.866 99.6174 130.195 97.7249 130.851 96.1605C131.514 94.5961 132.458 93.4062 133.685 92.5909C134.918 91.7689 136.386 91.3579 138.089 91.3579C139.793 91.3579 141.258 91.7689 142.484 92.5909C143.717 93.4129 144.665 94.6061 145.328 96.1704C145.991 97.7282 146.319 99.6174 146.312 101.838C146.312 104.072 145.981 105.981 145.318 107.565C144.662 109.15 143.721 110.359 142.494 111.195C141.268 112.03 139.8 112.447 138.089 112.447ZM138.089 108.878C139.256 108.878 140.187 108.291 140.884 107.118C141.58 105.945 141.924 104.185 141.918 101.838C141.918 100.294 141.759 99.0076 141.44 97.9801C141.129 96.9526 140.685 96.1804 140.108 95.6633C139.538 95.1463 138.865 94.8878 138.089 94.8878C136.929 94.8878 136.001 95.4678 135.305 96.6278C134.609 97.7879 134.258 99.5246 134.251 101.838C134.251 103.402 134.407 104.708 134.719 105.756C135.037 106.796 135.484 107.579 136.061 108.102C136.638 108.619 137.314 108.878 138.089 108.878Z" fill="#F9F9F9"/>
<path d="M398.176 99.2308C405.812 103.303 414.498 142.075 414.498 142.075L412.339 164.809L198 140.376L202.523 92.7533C202.523 92.7533 220.68 63.0181 224.484 59.9536C228.287 56.8891 237.366 56.9585 245.26 58.2641C253.153 59.5697 261.598 39.0259 268.294 39.3833C274.989 39.7408 280.04 71.9675 286.295 73.4922C292.55 75.0168 306.095 48.9676 314.173 47.4537C322.252 45.9399 329.611 61.7927 337.778 63.1295C345.945 64.4663 352.382 44.0993 360.8 45.4648C369.219 46.8302 368.506 88.5733 376.766 98.8191C384.057 107.864 390.236 94.9973 398.176 99.2308Z" fill="url(#paint0_linear_2580_5287)" fill-opacity="0.5"/>
<path d="M413.942 143.159C413.942 143.159 405.325 103.875 397.706 99.7607C389.783 95.4832 383.594 108.535 376.326 99.3795C368.093 89.0085 368.866 46.6978 360.461 45.328C352.056 43.9582 345.599 64.6124 337.445 63.2712C329.291 61.93 321.966 45.8744 313.896 47.4224C305.827 48.9703 292.262 75.3958 286.018 73.861C279.774 72.3262 274.778 39.6706 268.092 39.3196C261.406 38.9685 252.943 59.8054 245.062 58.4953C237.182 57.1853 228.115 57.1302 224.312 60.2427C220.51 63.3552 202.333 93.5244 202.333 93.5244" stroke="#E6A500" stroke-width="4" stroke-linecap="round" stroke-linejoin="round"/>
<circle cx="367" cy="62" r="6" fill="white" stroke="#E6A500" stroke-width="4"/>
<path d="M21.9276 158.369V151.489H23.4886V158.369H21.9276ZM19.2678 155.71V154.148H26.1484V155.71H19.2678ZM32.3661 149.818V160H30.5216V151.613H30.462L28.0806 153.134V151.444L30.6111 149.818H32.3661ZM38.5054 160.139C37.7895 160.139 37.1532 160.017 36.5963 159.771C36.0428 159.526 35.6053 159.185 35.2838 158.747C34.9623 158.31 34.7917 157.804 34.7718 157.231H36.6411C36.6577 157.506 36.7488 157.746 36.9145 157.952C37.0802 158.154 37.3007 158.311 37.5757 158.424C37.8508 158.537 38.1591 158.593 38.5005 158.593C38.865 158.593 39.1882 158.53 39.4699 158.404C39.7516 158.275 39.9721 158.096 40.1311 157.867C40.2902 157.638 40.3681 157.375 40.3648 157.077C40.3681 156.768 40.2886 156.497 40.1262 156.261C39.9638 156.026 39.7284 155.842 39.4202 155.71C39.1153 155.577 38.7474 155.511 38.3165 155.511H37.4167V154.089H38.3165C38.6712 154.089 38.981 154.027 39.2462 153.905C39.5147 153.782 39.7251 153.61 39.8776 153.388C40.0301 153.162 40.1046 152.902 40.1013 152.607C40.1046 152.319 40.04 152.069 39.9074 151.857C39.7782 151.641 39.5942 151.474 39.3556 151.354C39.1203 151.235 38.8435 151.175 38.5253 151.175C38.2138 151.175 37.9254 151.232 37.6603 151.344C37.3951 151.457 37.1813 151.618 37.0189 151.827C36.8565 152.032 36.7703 152.277 36.7604 152.562H34.9855C34.9988 151.992 35.1629 151.492 35.4777 151.061C35.7959 150.627 36.2202 150.289 36.7505 150.047C37.2808 149.802 37.8757 149.679 38.5353 149.679C39.2147 149.679 39.8047 149.807 40.3051 150.062C40.8089 150.314 41.1984 150.653 41.4735 151.081C41.7486 151.509 41.8861 151.981 41.8861 152.498C41.8894 153.071 41.7204 153.552 41.379 153.94C41.0409 154.327 40.5968 154.581 40.0466 154.7V154.78C40.7625 154.879 41.3111 155.144 41.6922 155.575C42.0767 156.003 42.2673 156.535 42.264 157.171C42.264 157.741 42.1016 158.252 41.7767 158.702C41.4552 159.15 41.0111 159.501 40.4444 159.756C39.8809 160.012 39.2346 160.139 38.5054 160.139ZM44.6982 160.109C44.3966 160.109 44.1381 160.003 43.9227 159.791C43.7072 159.579 43.6012 159.321 43.6045 159.016C43.6012 158.717 43.7072 158.462 43.9227 158.25C44.1381 158.038 44.3966 157.932 44.6982 157.932C44.9899 157.932 45.2434 158.038 45.4589 158.25C45.6776 158.462 45.7887 158.717 45.792 159.016C45.7887 159.218 45.7356 159.402 45.6329 159.567C45.5335 159.733 45.4009 159.866 45.2352 159.965C45.0728 160.061 44.8938 160.109 44.6982 160.109ZM50.9469 160.139C50.2841 160.139 49.6908 160.015 49.1671 159.766C48.6434 159.514 48.2275 159.17 47.9192 158.732C47.6143 158.295 47.4519 157.794 47.432 157.231H49.2218C49.2549 157.648 49.4356 157.99 49.7637 158.255C50.0918 158.517 50.4862 158.648 50.9469 158.648C51.3082 158.648 51.6297 158.565 51.9114 158.399C52.1932 158.233 52.4152 158.003 52.5776 157.708C52.74 157.413 52.8196 157.077 52.8163 156.699C52.8196 156.314 52.7384 155.973 52.5727 155.675C52.4069 155.376 52.1799 155.143 51.8915 154.974C51.6032 154.801 51.2718 154.715 50.8972 154.715C50.5923 154.712 50.2924 154.768 49.9974 154.884C49.7024 155 49.4687 155.153 49.2964 155.342L47.6309 155.068L48.1629 149.818H54.0691V151.359H49.6891L49.3958 154.059H49.4555C49.6444 153.837 49.9112 153.653 50.2559 153.507C50.6006 153.358 50.9784 153.283 51.3894 153.283C52.0059 153.283 52.5561 153.429 53.04 153.721C53.5239 154.009 53.905 154.407 54.1835 154.914C54.4619 155.421 54.6011 156.001 54.6011 156.654C54.6011 157.327 54.4453 157.927 54.1337 158.454C53.8255 158.978 53.3963 159.39 52.8461 159.692C52.2992 159.99 51.6662 160.139 50.9469 160.139ZM61.6104 158.091V157.554C61.6104 157.16 61.6933 156.797 61.859 156.465C62.0281 156.134 62.2733 155.867 62.5948 155.665C62.9163 155.463 63.3058 155.362 63.7631 155.362C64.2338 155.362 64.6282 155.463 64.9464 155.665C65.2646 155.864 65.5049 156.129 65.6673 156.46C65.833 156.792 65.9158 157.156 65.9158 157.554V158.091C65.9158 158.485 65.833 158.848 65.6673 159.18C65.5015 159.511 65.2579 159.778 64.9364 159.98C64.6183 160.182 64.2272 160.283 63.7631 160.283C63.2991 160.283 62.9064 160.182 62.5849 159.98C62.2634 159.778 62.0198 159.511 61.854 159.18C61.6916 158.848 61.6104 158.485 61.6104 158.091ZM62.908 157.554V158.091C62.908 158.353 62.971 158.593 63.0969 158.812C63.2229 159.031 63.445 159.14 63.7631 159.14C64.0846 159.14 64.305 159.032 64.4244 158.817C64.547 158.598 64.6083 158.356 64.6083 158.091V157.554C64.6083 157.289 64.5503 157.047 64.4343 156.828C64.3183 156.606 64.0946 156.495 63.7631 156.495C63.4516 156.495 63.2312 156.606 63.1019 156.828C62.9727 157.047 62.908 157.289 62.908 157.554ZM56.435 152.264V151.727C56.435 151.33 56.5195 150.965 56.6886 150.634C56.8576 150.302 57.1029 150.037 57.4244 149.838C57.7459 149.636 58.1353 149.535 58.5927 149.535C59.06 149.535 59.4528 149.636 59.771 149.838C60.0924 150.037 60.3344 150.302 60.4968 150.634C60.6592 150.965 60.7404 151.33 60.7404 151.727V152.264C60.7404 152.662 60.6576 153.027 60.4918 153.358C60.3294 153.686 60.0875 153.95 59.766 154.148C59.4445 154.347 59.0534 154.447 58.5927 154.447C58.1254 154.447 57.7309 154.347 57.4094 154.148C57.0913 153.95 56.8493 153.684 56.6836 153.353C56.5179 153.022 56.435 152.659 56.435 152.264ZM57.7425 151.727V152.264C57.7425 152.529 57.8039 152.771 57.9265 152.99C58.0524 153.205 58.2745 153.313 58.5927 153.313C58.9109 153.313 59.1296 153.205 59.2489 152.99C59.3716 152.771 59.4329 152.529 59.4329 152.264V151.727C59.4329 151.462 59.3749 151.22 59.2589 151.001C59.1429 150.779 58.9208 150.668 58.5927 150.668C58.2778 150.668 58.0574 150.779 57.9315 151.001C57.8055 151.223 57.7425 151.465 57.7425 151.727ZM57.0018 160L64.0018 149.818H65.2447L58.2447 160H57.0018Z" fill="#2EBF43"/>
</g>
<g filter="url(#filter1_d_2580_5287)">
<rect x="2" y="197" width="440" height="192" rx="10" fill="#181818"/>
<rect x="2.5" y="197.5" width="439" height="191" rx="9.5" stroke="#2B2D2F"/>
<path d="M24.4769 229H22.3675L26.2081 218.091H28.6477L32.4936 229H30.3842L27.4705 220.328H27.3853L24.4769 229ZM24.5462 224.723H30.299V226.31H24.5462V224.723ZM35.7735 224.206V229H33.8453V220.818H35.6883V222.208H35.7842C35.9724 221.75 36.2725 221.386 36.6844 221.116C37.0999 220.847 37.613 220.712 38.2238 220.712C38.7884 220.712 39.2803 220.832 39.6993 221.074C40.1219 221.315 40.4486 221.665 40.6794 222.123C40.9138 222.581 41.0292 223.137 41.0257 223.79V229H39.0974V224.089C39.0974 223.542 38.9553 223.114 38.6713 222.805C38.3907 222.496 38.0019 222.342 37.5047 222.342C37.1673 222.342 36.8673 222.416 36.6045 222.565C36.3453 222.711 36.1411 222.922 35.9919 223.199C35.8463 223.476 35.7735 223.812 35.7735 224.206ZM45.3403 229.165C44.8218 229.165 44.3548 229.073 43.9394 228.888C43.5274 228.7 43.2007 228.423 42.9593 228.057C42.7213 227.691 42.6024 227.24 42.6024 226.704C42.6024 226.243 42.6876 225.861 42.858 225.559C43.0285 225.257 43.2611 225.016 43.5558 224.835C43.8506 224.653 44.1826 224.517 44.5519 224.424C44.9248 224.328 45.3101 224.259 45.7078 224.217C46.1872 224.167 46.5761 224.123 46.8744 224.083C47.1727 224.041 47.3893 223.977 47.5242 223.892C47.6627 223.803 47.732 223.666 47.732 223.482V223.45C47.732 223.048 47.613 222.738 47.3751 222.517C47.1372 222.297 46.7945 222.187 46.347 222.187C45.8747 222.187 45.5001 222.29 45.2231 222.496C44.9497 222.702 44.765 222.945 44.6691 223.226L42.8687 222.97C43.0107 222.473 43.2451 222.058 43.5718 221.724C43.8985 221.386 44.298 221.134 44.7703 220.967C45.2426 220.797 45.7646 220.712 46.3364 220.712C46.7306 220.712 47.123 220.758 47.5136 220.85C47.9042 220.942 48.2611 221.095 48.5843 221.308C48.9074 221.518 49.1666 221.804 49.3619 222.166C49.5608 222.528 49.6602 222.981 49.6602 223.524V229H47.8066V227.876H47.7426C47.6254 228.103 47.4603 228.316 47.2472 228.515C47.0377 228.711 46.7732 228.869 46.4536 228.989C46.1375 229.107 45.7664 229.165 45.3403 229.165ZM45.841 227.748C46.2281 227.748 46.5637 227.672 46.8477 227.519C47.1318 227.363 47.3502 227.157 47.5029 226.901C47.6592 226.646 47.7373 226.367 47.7373 226.065V225.101C47.6769 225.151 47.574 225.197 47.4284 225.239C47.2863 225.282 47.1265 225.319 46.949 225.351C46.7714 225.383 46.5956 225.412 46.4216 225.436C46.2476 225.461 46.0967 225.483 45.9688 225.5C45.6812 225.539 45.4237 225.603 45.1965 225.692C44.9692 225.781 44.7899 225.905 44.6585 226.065C44.5271 226.221 44.4614 226.424 44.4614 226.672C44.4614 227.027 44.591 227.295 44.8502 227.477C45.1095 227.658 45.4397 227.748 45.841 227.748ZM53.5274 218.091V229H51.5992V218.091H53.5274ZM56.7088 232.068C56.446 232.068 56.2028 232.047 55.979 232.004C55.7589 231.965 55.5831 231.919 55.4517 231.866L55.8991 230.364C56.1797 230.445 56.43 230.484 56.6502 230.481C56.8704 230.477 57.0639 230.408 57.2308 230.273C57.4013 230.142 57.5451 229.922 57.6623 229.613L57.8274 229.17L54.8604 220.818H56.9059L58.7915 226.997H58.8768L60.7678 220.818H62.8185L59.5426 229.991C59.3899 230.424 59.1875 230.795 58.9354 231.104C58.6832 231.417 58.3743 231.654 58.0085 231.818C57.6463 231.985 57.2131 232.068 56.7088 232.068ZM68.2385 220.818V222.31H63.535V220.818H68.2385ZM64.6962 218.858H66.6245V226.539C66.6245 226.798 66.6635 226.997 66.7417 227.136C66.8233 227.271 66.9299 227.363 67.0613 227.413C67.1926 227.462 67.3382 227.487 67.498 227.487C67.6188 227.487 67.7289 227.478 67.8283 227.461C67.9313 227.443 68.0094 227.427 68.0627 227.413L68.3876 228.92C68.2846 228.956 68.1373 228.995 67.9455 229.037C67.7573 229.08 67.5265 229.105 67.253 229.112C66.7701 229.126 66.335 229.053 65.948 228.893C65.5609 228.73 65.2537 228.478 65.0265 228.137C64.8027 227.796 64.6926 227.37 64.6962 226.859V218.858ZM69.8511 229V220.818H71.7794V229H69.8511ZM70.8206 219.657C70.5152 219.657 70.2524 219.556 70.0322 219.353C69.8121 219.147 69.702 218.901 69.702 218.613C69.702 218.322 69.8121 218.075 70.0322 217.873C70.2524 217.667 70.5152 217.564 70.8206 217.564C71.1295 217.564 71.3923 217.667 71.6089 217.873C71.8291 218.075 71.9392 218.322 71.9392 218.613C71.9392 218.901 71.8291 219.147 71.6089 219.353C71.3923 219.556 71.1295 219.657 70.8206 219.657ZM77.3311 229.16C76.5144 229.16 75.813 228.98 75.2271 228.622C74.6447 228.263 74.1955 227.768 73.8794 227.136C73.5669 226.5 73.4107 225.768 73.4107 224.941C73.4107 224.11 73.5705 223.377 73.8901 222.741C74.2097 222.102 74.6607 221.605 75.2431 221.25C75.829 220.891 76.5215 220.712 77.3205 220.712C77.9846 220.712 78.5723 220.834 79.0836 221.079C79.5985 221.321 80.0087 221.663 80.3141 222.107C80.6195 222.548 80.7935 223.062 80.8361 223.652H78.9931C78.9185 223.258 78.7409 222.929 78.4604 222.667C78.1834 222.4 77.8123 222.267 77.3471 222.267C76.9529 222.267 76.6067 222.374 76.3084 222.587C76.0101 222.796 75.7775 223.098 75.6106 223.492C75.4473 223.886 75.3656 224.359 75.3656 224.909C75.3656 225.467 75.4473 225.946 75.6106 226.347C75.774 226.745 76.003 227.052 76.2978 227.269C76.5961 227.482 76.9458 227.588 77.3471 227.588C77.6312 227.588 77.8851 227.535 78.1088 227.429C78.3361 227.319 78.5261 227.161 78.6788 226.955C78.8315 226.749 78.9363 226.498 78.9931 226.203H80.8361C80.79 226.782 80.6195 227.295 80.3248 227.743C80.03 228.187 79.6287 228.535 79.1209 228.787C78.6131 229.036 78.0165 229.16 77.3311 229.16ZM88.8861 222.981L87.1283 223.173C87.0786 222.995 86.9916 222.828 86.8673 222.672C86.7465 222.516 86.5832 222.39 86.3772 222.294C86.1713 222.198 85.9191 222.15 85.6208 222.15C85.2195 222.15 84.8822 222.237 84.6088 222.411C84.3389 222.585 84.2057 222.81 84.2093 223.087C84.2057 223.325 84.2927 223.519 84.4703 223.668C84.6514 223.817 84.9497 223.94 85.3651 224.036L86.7607 224.334C87.5349 224.501 88.1102 224.765 88.4866 225.127C88.8666 225.49 89.0583 225.964 89.0619 226.55C89.0583 227.065 88.9074 227.519 88.6091 227.913C88.3144 228.304 87.9042 228.609 87.3786 228.83C86.8531 229.05 86.2494 229.16 85.5676 229.16C84.5661 229.16 83.76 228.95 83.1492 228.531C82.5384 228.109 82.1744 227.521 82.0573 226.768L83.9376 226.587C84.0228 226.956 84.2039 227.235 84.4809 227.423C84.7579 227.612 85.1183 227.706 85.5622 227.706C86.0203 227.706 86.3879 227.612 86.6649 227.423C86.9454 227.235 87.0857 227.002 87.0857 226.725C87.0857 226.491 86.9951 226.298 86.814 226.145C86.6365 225.992 86.3595 225.875 85.983 225.793L84.5874 225.5C83.8026 225.337 83.222 225.062 82.8456 224.675C82.4692 224.284 82.2828 223.79 82.2863 223.194C82.2828 222.69 82.4195 222.253 82.6965 221.884C82.977 221.511 83.3659 221.223 83.863 221.021C84.3637 220.815 84.9408 220.712 85.5942 220.712C86.553 220.712 87.3076 220.916 87.858 221.324C88.412 221.733 88.7547 222.285 88.8861 222.981Z" fill="#F9F9F9"/>
<path d="M411.558 223.684H412.191M411.558 224.317H412.191M405.652 223.684H406.285M405.652 224.317H406.285M417.465 223.684H418.097M417.465 224.317H418.097M412.719 224C412.719 224.466 412.341 224.844 411.875 224.844C411.409 224.844 411.031 224.466 411.031 224C411.031 223.534 411.409 223.156 411.875 223.156C412.341 223.156 412.719 223.534 412.719 224ZM406.812 224C406.812 224.466 406.435 224.844 405.969 224.844C405.503 224.844 405.125 224.466 405.125 224C405.125 223.534 405.503 223.156 405.969 223.156C406.435 223.156 406.812 223.534 406.812 224ZM418.625 224C418.625 224.466 418.247 224.844 417.781 224.844C417.315 224.844 416.937 224.466 416.937 224C416.937 223.534 417.315 223.156 417.781 223.156C418.247 223.156 418.625 223.534 418.625 224Z" stroke="#5F6D7E" stroke-width="1.6875" stroke-linecap="round"/>
<g clip-path="url(#clip0_2580_5287)">
<path d="M22 257C22 253.686 24.6863 251 28 251H50.25C53.5637 251 56.25 253.686 56.25 257V335C56.25 338.314 53.5637 341 50.25 341H28C24.6863 341 22 338.314 22 335V257Z" fill="#2B2D2F"/>
<path d="M12.7637 299.261H65.1007V342.522C65.1007 345.283 62.8622 347.522 60.1007 347.522H17.7637C15.0023 347.522 12.7637 345.283 12.7637 342.522V299.261Z" fill="#E6A500"/>
</g>
<g clip-path="url(#clip1_2580_5287)">
<path d="M74.25 257C74.25 253.686 76.9363 251 80.25 251H102.5C105.814 251 108.5 253.686 108.5 257V335C108.5 338.314 105.814 341 102.5 341H80.25C76.9363 341 74.25 338.314 74.25 335V257Z" fill="#2B2D2F"/>
<path d="M69.248 281.652H113.888V339.913C113.888 342.674 111.65 344.913 108.888 344.913H74.248C71.4866 344.913 69.248 342.674 69.248 339.913V281.652Z" fill="#E6A500"/>
</g>
<g clip-path="url(#clip2_2580_5287)">
<path d="M126.5 257C126.5 253.686 129.186 251 132.5 251H154.75C158.064 251 160.75 253.686 160.75 257V335C160.75 338.314 158.064 341 154.75 341H132.5C129.186 341 126.5 338.314 126.5 335V257Z" fill="#2B2D2F"/>
<path d="M119.572 305.783H168.061V343.174C168.061 345.935 165.822 348.174 163.061 348.174H124.572C121.811 348.174 119.572 345.935 119.572 343.174V305.783Z" fill="#E6A500"/>
</g>
<g clip-path="url(#clip3_2580_5287)">
<path d="M178.75 257C178.75 253.686 181.436 251 184.75 251H207C210.314 251 213 253.686 213 257V335C213 338.314 210.314 341 207 341H184.75C181.436 341 178.75 338.314 178.75 335V257Z" fill="#2B2D2F"/>
<path d="M174.605 267.981H217.363V341.094C217.363 343.856 215.125 346.094 212.363 346.094H179.605C176.844 346.094 174.605 343.856 174.605 341.094V267.981Z" fill="#E6A500"/>
</g>
<g clip-path="url(#clip4_2580_5287)">
<path d="M231 257C231 253.686 233.686 251 237 251H259.25C262.564 251 265.25 253.686 265.25 257V335C265.25 338.314 262.564 341 259.25 341H237C233.686 341 231 338.314 231 335V257Z" fill="#2B2D2F"/>
<path d="M221.764 292.739H274.101V343.174C274.101 345.935 271.862 348.174 269.101 348.174H226.764C224.002 348.174 221.764 345.935 221.764 343.174V292.739Z" fill="#E6A500"/>
</g>
<g clip-path="url(#clip5_2580_5287)">
<path d="M283.25 257C283.25 253.686 285.936 251 289.25 251H311.5C314.814 251 317.5 253.686 317.5 257V335C317.5 338.314 314.814 341 311.5 341H289.25C285.936 341 283.25 338.314 283.25 335V257Z" fill="#2B2D2F"/>
<path d="M278.248 302.522H322.888V341.87C322.888 344.631 320.65 346.87 317.888 346.87H283.248C280.487 346.87 278.248 344.631 278.248 341.87V302.522Z" fill="#E6A500"/>
</g>
<g clip-path="url(#clip6_2580_5287)">
<path d="M335.5 257C335.5 253.686 338.186 251 341.5 251H363.75C367.064 251 369.75 253.686 369.75 257V335C369.75 338.314 367.064 341 363.75 341H341.5C338.186 341 335.5 338.314 335.5 335V257Z" fill="#2B2D2F"/>
<path d="M328.572 269.913H376.291V340.565C376.291 343.327 374.053 345.565 371.291 345.565H333.572C330.811 345.565 328.572 343.327 328.572 340.565V269.913Z" fill="#E6A500"/>
</g>
<g clip-path="url(#clip7_2580_5287)">
<path d="M387.75 257C387.75 253.686 390.436 251 393.75 251H416C419.314 251 422 253.686 422 257V335C422 338.314 419.314 341 416 341H393.75C390.436 341 387.75 338.314 387.75 335V257Z" fill="#2B2D2F"/>
<path d="M381.977 292.739H428.156V341.87C428.156 344.631 425.918 346.87 423.156 346.87H386.977C384.215 346.87 381.977 344.631 381.977 341.87V292.739Z" fill="#E6A500"/>
</g>
<path d="M33.076 359.818H34.6072V367.037C34.6072 367.69 34.478 368.248 34.2195 368.712C33.9643 369.176 33.6046 369.531 33.1406 369.776C32.6766 370.018 32.133 370.139 31.5099 370.139C30.9366 370.139 30.4212 370.035 29.9638 369.826C29.5097 369.617 29.1501 369.314 28.8849 368.916C28.6231 368.515 28.4922 368.028 28.4922 367.455H30.0185C30.0185 367.736 30.0831 367.98 30.2124 368.185C30.3449 368.391 30.5256 368.552 30.7543 368.668C30.9863 368.78 31.2514 368.837 31.5497 368.837C31.8745 368.837 32.1496 368.769 32.375 368.633C32.6037 368.494 32.7777 368.29 32.897 368.021C33.0163 367.753 33.076 367.425 33.076 367.037V359.818ZM38.9462 370.169C38.4623 370.169 38.0248 370.08 37.6337 369.901C37.2426 369.718 36.9327 369.455 36.704 369.11C36.4786 368.765 36.3659 368.343 36.3659 367.842C36.3659 367.411 36.4488 367.057 36.6145 366.778C36.7802 366.5 37.004 366.28 37.2857 366.117C37.5674 365.955 37.8823 365.832 38.2303 365.749C38.5783 365.666 38.9329 365.603 39.2942 365.56C39.7516 365.507 40.1228 365.464 40.4078 365.431C40.6929 365.395 40.9 365.337 41.0293 365.257C41.1586 365.178 41.2232 365.048 41.2232 364.869V364.835C41.2232 364.4 41.1006 364.064 40.8553 363.825C40.6133 363.587 40.2521 363.467 39.7715 363.467C39.271 363.467 38.8766 363.578 38.5882 363.8C38.3032 364.019 38.106 364.263 37.9966 364.531L36.5996 364.213C36.7653 363.749 37.0073 363.375 37.3255 363.089C37.647 362.801 38.0165 362.592 38.4341 362.463C38.8517 362.33 39.2909 362.264 39.7516 362.264C40.0565 362.264 40.3797 362.301 40.7211 362.374C41.0658 362.443 41.3873 362.572 41.6855 362.761C41.9872 362.95 42.2341 363.22 42.4263 363.572C42.6185 363.92 42.7147 364.372 42.7147 364.929V370H41.263V368.956H41.2033C41.1072 369.148 40.963 369.337 40.7708 369.523C40.5785 369.708 40.3316 369.862 40.03 369.985C39.7284 370.108 39.3671 370.169 38.9462 370.169ZM39.2694 368.976C39.6803 368.976 40.0317 368.895 40.3233 368.732C40.6183 368.57 40.842 368.358 40.9945 368.096C41.1503 367.831 41.2282 367.547 41.2282 367.246V366.261C41.1751 366.314 41.0724 366.364 40.9199 366.411C40.7708 366.454 40.6001 366.492 40.4078 366.525C40.2156 366.555 40.0284 366.583 39.8461 366.609C39.6638 366.633 39.5113 366.652 39.3887 366.669C39.1003 366.705 38.8368 366.767 38.5982 366.853C38.3629 366.939 38.1739 367.063 38.0314 367.226C37.8922 367.385 37.8226 367.597 37.8226 367.862C37.8226 368.23 37.9585 368.509 38.2303 368.697C38.5021 368.883 38.8484 368.976 39.2694 368.976ZM46.1811 365.466V370H44.6946V362.364H46.1214V363.607H46.2159C46.3916 363.202 46.6667 362.877 47.0412 362.632C47.419 362.387 47.8946 362.264 48.468 362.264C48.9884 362.264 49.4441 362.374 49.8352 362.592C50.2263 362.808 50.5296 363.129 50.745 363.557C50.9605 363.984 51.0682 364.513 51.0682 365.143V370H49.5817V365.322C49.5817 364.768 49.4375 364.336 49.1491 364.024C48.8608 363.709 48.4647 363.552 47.9609 363.552C47.6162 363.552 47.3097 363.626 47.0412 363.776C46.776 363.925 46.5656 364.143 46.4098 364.432C46.2573 364.717 46.1811 365.062 46.1811 365.466Z" fill="#979AA0"/>
<path d="M80.8329 370V359.818H87.1468V361.141H82.3691V364.243H86.6944V365.56H82.3691V370H80.8329ZM91.6474 370.154C90.895 370.154 90.247 369.993 89.7035 369.672C89.1632 369.347 88.7456 368.891 88.4506 368.305C88.159 367.715 88.0131 367.024 88.0131 366.232C88.0131 365.449 88.159 364.76 88.4506 364.163C88.7456 363.567 89.1566 363.101 89.6836 362.766C90.2139 362.432 90.8337 362.264 91.543 362.264C91.9738 362.264 92.3914 362.335 92.7958 362.478C93.2001 362.621 93.5631 362.844 93.8846 363.149C94.2061 363.454 94.4596 363.85 94.6452 364.337C94.8308 364.821 94.9236 365.41 94.9236 366.102V366.629H88.8533V365.516H93.467C93.467 365.125 93.3874 364.778 93.2283 364.477C93.0692 364.172 92.8455 363.931 92.5572 363.756C92.2721 363.58 91.9374 363.492 91.5529 363.492C91.1353 363.492 90.7707 363.595 90.4591 363.8C90.1509 364.003 89.9123 364.268 89.7432 364.596C89.5775 364.921 89.4947 365.274 89.4947 365.655V366.525C89.4947 367.035 89.5841 367.469 89.7631 367.827C89.9454 368.185 90.199 368.459 90.5238 368.648C90.8486 368.833 91.2281 368.926 91.6623 368.926C91.944 368.926 92.2009 368.886 92.4329 368.807C92.6649 368.724 92.8654 368.601 93.0344 368.439C93.2035 368.277 93.3327 368.076 93.4222 367.837L94.8292 368.091C94.7165 368.505 94.5143 368.868 94.2226 369.18C93.9343 369.488 93.5714 369.728 93.1339 369.901C92.6997 370.07 92.2042 370.154 91.6474 370.154ZM96.6923 370V359.818H98.1788V363.602H98.2683C98.3544 363.442 98.4787 363.259 98.6411 363.05C98.8035 362.841 99.0289 362.659 99.3173 362.503C99.6056 362.344 99.9868 362.264 100.461 362.264C101.077 362.264 101.627 362.42 102.111 362.732C102.595 363.043 102.975 363.492 103.25 364.079C103.528 364.665 103.667 365.371 103.667 366.197C103.667 367.022 103.53 367.73 103.255 368.32C102.98 368.906 102.602 369.359 102.121 369.677C101.641 369.992 101.092 370.149 100.476 370.149C100.012 370.149 99.6321 370.071 99.3372 369.915C99.0455 369.76 98.8168 369.577 98.6511 369.369C98.4854 369.16 98.3578 368.974 98.2683 368.812H98.144V370H96.6923ZM98.149 366.182C98.149 366.719 98.2268 367.189 98.3826 367.594C98.5384 367.998 98.7638 368.315 99.0588 368.543C99.3537 368.769 99.715 368.881 100.143 368.881C100.587 368.881 100.958 368.764 101.256 368.528C101.554 368.29 101.78 367.967 101.932 367.559C102.088 367.151 102.166 366.692 102.166 366.182C102.166 365.678 102.09 365.226 101.937 364.825C101.788 364.424 101.563 364.107 101.261 363.875C100.963 363.643 100.59 363.527 100.143 363.527C99.7117 363.527 99.3471 363.638 99.0488 363.86C98.7538 364.082 98.5301 364.392 98.3776 364.79C98.2252 365.187 98.149 365.652 98.149 366.182Z" fill="#979AA0"/>
<path d="M132.547 359.818H134.412L137.653 367.733H137.772L141.014 359.818H142.878V370H141.417V362.632H141.322L138.319 369.985H137.106L134.103 362.627H134.009V370H132.547V359.818ZM147.215 370.169C146.731 370.169 146.293 370.08 145.902 369.901C145.511 369.718 145.201 369.455 144.972 369.11C144.747 368.765 144.634 368.343 144.634 367.842C144.634 367.411 144.717 367.057 144.883 366.778C145.049 366.5 145.272 366.28 145.554 366.117C145.836 365.955 146.151 365.832 146.499 365.749C146.847 365.666 147.201 365.603 147.563 365.56C148.02 365.507 148.391 365.464 148.676 365.431C148.961 365.395 149.168 365.337 149.298 365.257C149.427 365.178 149.492 365.048 149.492 364.869V364.835C149.492 364.4 149.369 364.064 149.124 363.825C148.882 363.587 148.521 363.467 148.04 363.467C147.539 363.467 147.145 363.578 146.857 363.8C146.572 364.019 146.374 364.263 146.265 364.531L144.868 364.213C145.034 363.749 145.276 363.375 145.594 363.089C145.915 362.801 146.285 362.592 146.703 362.463C147.12 362.33 147.559 362.264 148.02 362.264C148.325 362.264 148.648 362.301 148.989 362.374C149.334 362.443 149.656 362.572 149.954 362.761C150.256 362.95 150.503 363.22 150.695 363.572C150.887 363.92 150.983 364.372 150.983 364.929V370H149.531V368.956H149.472C149.376 369.148 149.231 369.337 149.039 369.523C148.847 369.708 148.6 369.862 148.298 369.985C147.997 370.108 147.636 370.169 147.215 370.169ZM147.538 368.976C147.949 368.976 148.3 368.895 148.592 368.732C148.887 368.57 149.11 368.358 149.263 368.096C149.419 367.831 149.497 367.547 149.497 367.246V366.261C149.444 366.314 149.341 366.364 149.188 366.411C149.039 366.454 148.869 366.492 148.676 366.525C148.484 366.555 148.297 366.583 148.114 366.609C147.932 366.633 147.78 366.652 147.657 366.669C147.369 366.705 147.105 366.767 146.867 366.853C146.631 366.939 146.442 367.063 146.3 367.226C146.161 367.385 146.091 367.597 146.091 367.862C146.091 368.23 146.227 368.509 146.499 368.697C146.771 368.883 147.117 368.976 147.538 368.976ZM152.963 370V362.364H154.4V363.577H154.479C154.619 363.166 154.864 362.843 155.215 362.607C155.57 362.369 155.971 362.249 156.418 362.249C156.511 362.249 156.62 362.253 156.746 362.259C156.876 362.266 156.977 362.274 157.05 362.284V363.706C156.99 363.689 156.884 363.671 156.732 363.651C156.579 363.628 156.427 363.616 156.274 363.616C155.923 363.616 155.61 363.691 155.334 363.84C155.063 363.986 154.847 364.19 154.688 364.452C154.529 364.71 154.45 365.005 154.45 365.337V370H152.963Z" fill="#979AA0"/>
<path d="M186.122 370H184.491L188.155 359.818H189.93L193.594 370H191.963L189.085 361.668H189.005L186.122 370ZM186.395 366.013H191.685V367.305H186.395V366.013ZM194.945 372.864V362.364H196.397V363.602H196.521C196.607 363.442 196.731 363.259 196.894 363.05C197.056 362.841 197.282 362.659 197.57 362.503C197.858 362.344 198.239 362.264 198.713 362.264C199.33 362.264 199.88 362.42 200.364 362.732C200.848 363.043 201.227 363.492 201.502 364.079C201.781 364.665 201.92 365.371 201.92 366.197C201.92 367.022 201.782 367.73 201.507 368.32C201.232 368.906 200.854 369.359 200.374 369.677C199.893 369.992 199.345 370.149 198.728 370.149C198.264 370.149 197.885 370.071 197.59 369.915C197.298 369.76 197.069 369.577 196.904 369.369C196.738 369.16 196.61 368.974 196.521 368.812H196.431V372.864H194.945ZM196.402 366.182C196.402 366.719 196.479 367.189 196.635 367.594C196.791 367.998 197.016 368.315 197.311 368.543C197.606 368.769 197.968 368.881 198.395 368.881C198.839 368.881 199.211 368.764 199.509 368.528C199.807 368.29 200.032 367.967 200.185 367.559C200.341 367.151 200.419 366.692 200.419 366.182C200.419 365.678 200.342 365.226 200.19 364.825C200.041 364.424 199.815 364.107 199.514 363.875C199.215 363.643 198.843 363.527 198.395 363.527C197.964 363.527 197.6 363.638 197.301 363.86C197.006 364.082 196.783 364.392 196.63 364.79C196.478 365.187 196.402 365.652 196.402 366.182ZM203.586 370V362.364H205.022V363.577H205.102C205.241 363.166 205.486 362.843 205.838 362.607C206.192 362.369 206.593 362.249 207.041 362.249C207.134 362.249 207.243 362.253 207.369 362.259C207.498 362.266 207.599 362.274 207.672 362.284V363.706C207.612 363.689 207.506 363.671 207.354 363.651C207.202 363.628 207.049 363.616 206.897 363.616C206.545 363.616 206.232 363.691 205.957 363.84C205.685 363.986 205.47 364.19 205.311 364.452C205.152 364.71 205.072 365.005 205.072 365.337V370H203.586Z" fill="#979AA0"/>
<path d="M235.976 359.818H237.84L241.082 367.733H241.201L244.442 359.818H246.307V370H244.845V362.632H244.751L241.748 369.985H240.535L237.532 362.627H237.437V370H235.976V359.818ZM250.643 370.169C250.159 370.169 249.722 370.08 249.331 369.901C248.94 369.718 248.63 369.455 248.401 369.11C248.176 368.765 248.063 368.343 248.063 367.842C248.063 367.411 248.146 367.057 248.311 366.778C248.477 366.5 248.701 366.28 248.983 366.117C249.264 365.955 249.579 365.832 249.927 365.749C250.275 365.666 250.63 365.603 250.991 365.56C251.449 365.507 251.82 365.464 252.105 365.431C252.39 365.395 252.597 365.337 252.726 365.257C252.856 365.178 252.92 365.048 252.92 364.869V364.835C252.92 364.4 252.798 364.064 252.552 363.825C252.31 363.587 251.949 363.467 251.468 363.467C250.968 363.467 250.574 363.578 250.285 363.8C250 364.019 249.803 364.263 249.694 364.531L248.297 364.213C248.462 363.749 248.704 363.375 249.022 363.089C249.344 362.801 249.713 362.592 250.131 362.463C250.549 362.33 250.988 362.264 251.449 362.264C251.753 362.264 252.077 362.301 252.418 362.374C252.763 362.443 253.084 362.572 253.383 362.761C253.684 362.95 253.931 363.22 254.123 363.572C254.316 363.92 254.412 364.372 254.412 364.929V370H252.96V368.956H252.9C252.804 369.148 252.66 369.337 252.468 369.523C252.275 369.708 252.029 369.862 251.727 369.985C251.425 370.108 251.064 370.169 250.643 370.169ZM250.966 368.976C251.377 368.976 251.729 368.895 252.02 368.732C252.315 368.57 252.539 368.358 252.691 368.096C252.847 367.831 252.925 367.547 252.925 367.246V366.261C252.872 366.314 252.769 366.364 252.617 366.411C252.468 366.454 252.297 366.492 252.105 366.525C251.913 366.555 251.725 366.583 251.543 366.609C251.361 366.633 251.208 366.652 251.086 366.669C250.797 366.705 250.534 366.767 250.295 366.853C250.06 366.939 249.871 367.063 249.728 367.226C249.589 367.385 249.52 367.597 249.52 367.862C249.52 368.23 249.655 368.509 249.927 368.697C250.199 368.883 250.545 368.976 250.966 368.976ZM257.058 372.864C256.836 372.864 256.634 372.845 256.451 372.809C256.269 372.776 256.133 372.739 256.044 372.7L256.402 371.482C256.673 371.554 256.915 371.586 257.127 371.576C257.339 371.566 257.527 371.487 257.689 371.337C257.855 371.188 258.001 370.945 258.127 370.607L258.311 370.099L255.517 362.364H257.107L259.041 368.29H259.121L261.055 362.364H262.651L259.504 371.019C259.358 371.417 259.172 371.753 258.947 372.028C258.722 372.307 258.453 372.516 258.142 372.655C257.83 372.794 257.469 372.864 257.058 372.864Z" fill="#979AA0"/>
<path d="M295.647 359.818H297.179V367.037C297.179 367.69 297.049 368.248 296.791 368.712C296.536 369.176 296.176 369.531 295.712 369.776C295.248 370.018 294.704 370.139 294.081 370.139C293.508 370.139 292.993 370.035 292.535 369.826C292.081 369.617 291.722 369.314 291.456 368.916C291.195 368.515 291.064 368.028 291.064 367.455H292.59C292.59 367.736 292.655 367.98 292.784 368.185C292.916 368.391 293.097 368.552 293.326 368.668C293.558 368.78 293.823 368.837 294.121 368.837C294.446 368.837 294.721 368.769 294.946 368.633C295.175 368.494 295.349 368.29 295.468 368.021C295.588 367.753 295.647 367.425 295.647 367.037V359.818ZM304.133 366.833V362.364H305.624V370H304.162V368.678H304.083C303.907 369.085 303.626 369.425 303.238 369.697C302.853 369.965 302.374 370.099 301.801 370.099C301.31 370.099 300.876 369.992 300.498 369.776C300.124 369.558 299.829 369.234 299.613 368.807C299.401 368.379 299.295 367.851 299.295 367.221V362.364H300.782V367.042C300.782 367.562 300.926 367.977 301.214 368.285C301.503 368.593 301.877 368.747 302.338 368.747C302.616 368.747 302.893 368.678 303.168 368.538C303.447 368.399 303.677 368.189 303.859 367.907C304.045 367.625 304.136 367.267 304.133 366.833ZM309.108 365.466V370H307.621V362.364H309.048V363.607H309.143C309.318 363.202 309.594 362.877 309.968 362.632C310.346 362.387 310.822 362.264 311.395 362.264C311.915 362.264 312.371 362.374 312.762 362.592C313.153 362.808 313.456 363.129 313.672 363.557C313.887 363.984 313.995 364.513 313.995 365.143V370H312.509V365.322C312.509 364.768 312.364 364.336 312.076 364.024C311.788 363.709 311.392 363.552 310.888 363.552C310.543 363.552 310.237 363.626 309.968 363.776C309.703 363.925 309.492 364.143 309.337 364.432C309.184 364.717 309.108 365.062 309.108 365.466Z" fill="#979AA0"/>
<path d="M347.362 359.818H348.893V367.037C348.893 367.69 348.764 368.248 348.505 368.712C348.25 369.176 347.89 369.531 347.426 369.776C346.962 370.018 346.419 370.139 345.796 370.139C345.222 370.139 344.707 370.035 344.249 369.826C343.795 369.617 343.436 369.314 343.171 368.916C342.909 368.515 342.778 368.028 342.778 367.455H344.304C344.304 367.736 344.369 367.98 344.498 368.185C344.631 368.391 344.811 368.552 345.04 368.668C345.272 368.78 345.537 368.837 345.835 368.837C346.16 368.837 346.435 368.769 346.661 368.633C346.889 368.494 347.063 368.29 347.183 368.021C347.302 367.753 347.362 367.425 347.362 367.037V359.818ZM355.847 366.833V362.364H357.338V370H355.877V368.678H355.797C355.622 369.085 355.34 369.425 354.952 369.697C354.568 369.965 354.089 370.099 353.515 370.099C353.025 370.099 352.591 369.992 352.213 369.776C351.838 369.558 351.543 369.234 351.328 368.807C351.116 368.379 351.01 367.851 351.01 367.221V362.364H352.496V367.042C352.496 367.562 352.64 367.977 352.929 368.285C353.217 368.593 353.592 368.747 354.052 368.747C354.331 368.747 354.607 368.678 354.882 368.538C355.161 368.399 355.391 368.189 355.574 367.907C355.759 367.625 355.85 367.267 355.847 366.833ZM360.822 359.818V370H359.336V359.818H360.822Z" fill="#979AA0"/>
<path d="M390.979 370H389.348L393.012 359.818H394.787L398.451 370H396.82L393.942 361.668H393.862L390.979 370ZM391.252 366.013H396.542V367.305H391.252V366.013ZM404.639 366.833V362.364H406.131V370H404.669V368.678H404.59C404.414 369.085 404.132 369.425 403.744 369.697C403.36 369.965 402.881 370.099 402.308 370.099C401.817 370.099 401.383 369.992 401.005 369.776C400.631 369.558 400.336 369.234 400.12 368.807C399.908 368.379 399.802 367.851 399.802 367.221V362.364H401.289V367.042C401.289 367.562 401.433 367.977 401.721 368.285C402.009 368.593 402.384 368.747 402.845 368.747C403.123 368.747 403.4 368.678 403.675 368.538C403.953 368.399 404.184 368.189 404.366 367.907C404.552 367.625 404.643 367.267 404.639 366.833ZM411.33 373.023C410.723 373.023 410.201 372.943 409.764 372.784C409.33 372.625 408.975 372.415 408.7 372.153C408.425 371.891 408.219 371.604 408.083 371.293L409.361 370.766C409.451 370.911 409.57 371.066 409.719 371.228C409.872 371.394 410.077 371.535 410.336 371.651C410.597 371.767 410.934 371.825 411.345 371.825C411.908 371.825 412.374 371.687 412.742 371.412C413.11 371.14 413.294 370.706 413.294 370.109V368.608H413.199C413.11 368.77 412.98 368.951 412.811 369.15C412.646 369.349 412.417 369.521 412.125 369.667C411.834 369.813 411.454 369.886 410.987 369.886C410.384 369.886 409.84 369.745 409.356 369.463C408.876 369.178 408.494 368.759 408.213 368.205C407.934 367.648 407.795 366.964 407.795 366.152C407.795 365.34 407.933 364.644 408.208 364.064C408.486 363.484 408.867 363.04 409.351 362.732C409.835 362.42 410.384 362.264 410.997 362.264C411.471 362.264 411.854 362.344 412.145 362.503C412.437 362.659 412.664 362.841 412.826 363.05C412.992 363.259 413.12 363.442 413.209 363.602H413.319V362.364H414.775V370.169C414.775 370.825 414.623 371.364 414.318 371.785C414.013 372.206 413.6 372.517 413.08 372.719C412.563 372.922 411.98 373.023 411.33 373.023ZM411.315 368.653C411.743 368.653 412.104 368.553 412.399 368.354C412.697 368.152 412.922 367.864 413.075 367.489C413.231 367.112 413.309 366.659 413.309 366.132C413.309 365.618 413.232 365.166 413.08 364.775C412.927 364.384 412.704 364.079 412.409 363.86C412.114 363.638 411.749 363.527 411.315 363.527C410.868 363.527 410.495 363.643 410.196 363.875C409.898 364.104 409.673 364.415 409.52 364.81C409.371 365.204 409.297 365.645 409.297 366.132C409.297 366.633 409.373 367.072 409.525 367.45C409.678 367.827 409.903 368.122 410.201 368.335C410.503 368.547 410.874 368.653 411.315 368.653Z" fill="#979AA0"/>
</g>
<defs>
<filter id="filter0_d_2580_5287" x="0" y="0" width="444" height="184" filterUnits="userSpaceOnUse" color-interpolation-filters="sRGB">
<feFlood flood-opacity="0" result="BackgroundImageFix"/>
<feColorMatrix in="SourceAlpha" type="matrix" values="0 0 0 0 0 0 0 0 0 0 0 0 0 0 0 0 0 0 127 0" result="hardAlpha"/>
<feOffset dy="1"/>
<feGaussianBlur stdDeviation="1"/>
<feComposite in2="hardAlpha" operator="out"/>
<feColorMatrix type="matrix" values="0 0 0 0 0.0627451 0 0 0 0 0.0941176 0 0 0 0 0.156863 0 0 0 0.04 0"/>
<feBlend mode="normal" in2="BackgroundImageFix" result="effect1_dropShadow_2580_5287"/>
<feBlend mode="normal" in="SourceGraphic" in2="effect1_dropShadow_2580_5287" result="shape"/>
</filter>
<filter id="filter1_d_2580_5287" x="0" y="196" width="444" height="196" filterUnits="userSpaceOnUse" color-interpolation-filters="sRGB">
<feFlood flood-opacity="0" result="BackgroundImageFix"/>
<feColorMatrix in="SourceAlpha" type="matrix" values="0 0 0 0 0 0 0 0 0 0 0 0 0 0 0 0 0 0 127 0" result="hardAlpha"/>
<feOffset dy="1"/>
<feGaussianBlur stdDeviation="1"/>
<feComposite in2="hardAlpha" operator="out"/>
<feColorMatrix type="matrix" values="0 0 0 0 0.0627451 0 0 0 0 0.0941176 0 0 0 0 0.156863 0 0 0 0.04 0"/>
<feBlend mode="normal" in2="BackgroundImageFix" result="effect1_dropShadow_2580_5287"/>
<feBlend mode="normal" in="SourceGraphic" in2="effect1_dropShadow_2580_5287" result="shape"/>
</filter>
<linearGradient id="paint0_linear_2580_5287" x1="315.831" y1="40.3328" x2="303.061" y2="152.352" gradientUnits="userSpaceOnUse">
<stop stop-color="#0A77FF" stop-opacity="0.25"/>
<stop offset="1" stop-color="white" stop-opacity="0"/>
</linearGradient>
<clipPath id="clip0_2580_5287">
<path d="M22 257C22 253.686 24.6863 251 28 251H50.25C53.5637 251 56.25 253.686 56.25 257V335C56.25 338.314 53.5637 341 50.25 341H28C24.6863 341 22 338.314 22 335V257Z" fill="white"/>
</clipPath>
<clipPath id="clip1_2580_5287">
<path d="M74.25 257C74.25 253.686 76.9363 251 80.25 251H102.5C105.814 251 108.5 253.686 108.5 257V335C108.5 338.314 105.814 341 102.5 341H80.25C76.9363 341 74.25 338.314 74.25 335V257Z" fill="white"/>
</clipPath>
<clipPath id="clip2_2580_5287">
<path d="M126.5 257C126.5 253.686 129.186 251 132.5 251H154.75C158.064 251 160.75 253.686 160.75 257V335C160.75 338.314 158.064 341 154.75 341H132.5C129.186 341 126.5 338.314 126.5 335V257Z" fill="white"/>
</clipPath>
<clipPath id="clip3_2580_5287">
<path d="M178.75 257C178.75 253.686 181.436 251 184.75 251H207C210.314 251 213 253.686 213 257V335C213 338.314 210.314 341 207 341H184.75C181.436 341 178.75 338.314 178.75 335V257Z" fill="white"/>
</clipPath>
<clipPath id="clip4_2580_5287">
<path d="M231 257C231 253.686 233.686 251 237 251H259.25C262.564 251 265.25 253.686 265.25 257V335C265.25 338.314 262.564 341 259.25 341H237C233.686 341 231 338.314 231 335V257Z" fill="white"/>
</clipPath>
<clipPath id="clip5_2580_5287">
<path d="M283.25 257C283.25 253.686 285.936 251 289.25 251H311.5C314.814 251 317.5 253.686 317.5 257V335C317.5 338.314 314.814 341 311.5 341H289.25C285.936 341 283.25 338.314 283.25 335V257Z" fill="white"/>
</clipPath>
<clipPath id="clip6_2580_5287">
<path d="M335.5 257C335.5 253.686 338.186 251 341.5 251H363.75C367.064 251 369.75 253.686 369.75 257V335C369.75 338.314 367.064 341 363.75 341H341.5C338.186 341 335.5 338.314 335.5 335V257Z" fill="white"/>
</clipPath>
<clipPath id="clip7_2580_5287">
<path d="M387.75 257C387.75 253.686 390.436 251 393.75 251H416C419.314 251 422 253.686 422 257V335C422 338.314 419.314 341 416 341H393.75C390.436 341 387.75 338.314 387.75 335V257Z" fill="white"/>
</clipPath>
</defs>
</svg>
