<svg width="24" height="25" viewBox="0 0 24 25" fill="none" xmlns="http://www.w3.org/2000/svg">
<g clip-path="url(#clip0_869_1823)">
<path d="M24 12.5996C24 5.97219 18.6274 0.599609 12 0.599609C5.37258 0.599609 0 5.97219 0 12.5996C0 18.5891 4.3882 23.5536 10.125 24.4538V16.0684H7.07812V12.5996H10.125V9.95586C10.125 6.94836 11.9166 5.28711 14.6576 5.28711C15.9701 5.28711 17.3438 5.52148 17.3438 5.52148V8.47461H15.8306C14.34 8.47461 13.875 9.39969 13.875 10.3496V12.5996H17.2031L16.6711 16.0684H13.875V24.4538C19.6118 23.5536 24 18.5891 24 12.5996Z" fill="#999999"/>
</g>
<defs>
<clipPath id="clip0_869_1823">
<rect width="24" height="24" fill="white" transform="translate(0 0.599609)"/>
</clipPath>
</defs>
</svg>
