<svg width="24" height="25" viewBox="0 0 24 25" fill="none" xmlns="http://www.w3.org/2000/svg">
<g clip-path="url(#clip0_869_1825)">
<path d="M21.6841 19.3029C21.3212 20.1414 20.8916 20.9132 20.3938 21.6228C19.7153 22.5902 19.1598 23.2598 18.7316 23.6317C18.068 24.242 17.3569 24.5546 16.5954 24.5724C16.0488 24.5724 15.3895 24.4168 14.6221 24.1013C13.8522 23.7872 13.1447 23.6317 12.4978 23.6317C11.8193 23.6317 11.0916 23.7872 10.3132 24.1013C9.53371 24.4168 8.90573 24.5813 8.4256 24.5976C7.6954 24.6287 6.96757 24.3072 6.24108 23.6317C5.77739 23.2272 5.19741 22.5339 4.50262 21.5517C3.75716 20.5029 3.14429 19.2866 2.66416 17.9C2.14995 16.4022 1.89218 14.9519 1.89218 13.5478C1.89218 11.9394 2.23973 10.5522 2.93585 9.38972C3.48294 8.45597 4.21077 7.7194 5.12171 7.17867C6.03264 6.63795 7.01691 6.3624 8.07687 6.34477C8.65685 6.34477 9.41742 6.52417 10.3626 6.87676C11.3051 7.23052 11.9102 7.40992 12.1756 7.40992C12.3739 7.40992 13.0462 7.20015 14.1859 6.78194C15.2636 6.3941 16.1732 6.23352 16.9184 6.29677C18.9376 6.45973 20.4545 7.25571 21.4634 8.68974C19.6575 9.78393 18.7642 11.3165 18.782 13.2825C18.7983 14.8138 19.3538 16.0882 20.4457 17.1C20.9405 17.5696 21.493 17.9326 22.1078 18.1903C21.9745 18.577 21.8338 18.9474 21.6841 19.3029ZM17.0532 1.07975C17.0532 2.28002 16.6147 3.40071 15.7406 4.43801C14.6858 5.67116 13.41 6.38373 12.0265 6.27129C12.0089 6.1273 11.9987 5.97575 11.9987 5.81649C11.9987 4.66423 12.5003 3.43108 13.3911 2.42282C13.8358 1.91231 14.4014 1.48784 15.0873 1.14922C15.7717 0.815664 16.4191 0.631198 17.028 0.599609C17.0458 0.760067 17.0532 0.920535 17.0532 1.07973V1.07975Z" fill="#999999"/>
</g>
<defs>
<clipPath id="clip0_869_1825">
<rect width="24" height="24" fill="white" transform="translate(0 0.599609)"/>
</clipPath>
</defs>
</svg>
