<svg width="24" height="25" viewBox="0 0 24 25" fill="none" xmlns="http://www.w3.org/2000/svg">
<g clip-path="url(#clip0_869_1824)">
<path d="M23.7628 12.8759C23.7628 12.0601 23.6967 11.24 23.5556 10.4375H12.2368V15.0585H18.7185C18.4495 16.5488 17.5853 17.8672 16.3198 18.705V21.7033H20.1868C22.4576 19.6133 23.7628 16.5268 23.7628 12.8759Z" fill="#999999"/>
<path d="M12.2373 24.5999C15.4737 24.5999 18.2031 23.5373 20.1917 21.703L16.3247 18.7047C15.2488 19.4366 13.8599 19.8511 12.2417 19.8511C9.11105 19.8511 6.45663 17.739 5.50421 14.8994H1.51376V17.9904C3.55088 22.0425 7.70006 24.5999 12.2373 24.5999Z" fill="#999999"/>
<path d="M5.49974 14.8998C4.99707 13.4095 4.99707 11.7957 5.49974 10.3053V7.21436H1.5137C-0.188303 10.6051 -0.188303 14.6 1.5137 17.9908L5.49974 14.8998Z" fill="#999999"/>
<path d="M12.2373 5.34927C13.9481 5.32281 15.6016 5.96658 16.8407 7.14828L20.2667 3.72223C18.0973 1.68511 15.218 0.565143 12.2373 0.600418C7.7001 0.600418 3.55092 3.15783 1.51381 7.21442L5.49985 10.3054C6.44785 7.46134 9.10668 5.34927 12.2373 5.34927Z" fill="#999999"/>
</g>
<defs>
<clipPath id="clip0_869_1824">
<rect width="24" height="24" fill="white" transform="translate(0 0.599609)"/>
</clipPath>
</defs>
</svg>
