<svg width="24" height="25" viewBox="0 0 24 25" fill="none" xmlns="http://www.w3.org/2000/svg">
<g clip-path="url(#clip0_869_1826)">
<path d="M16.8503 0.599609H7.14973C3.20735 0.599609 0 3.80696 0 7.74934V17.4499C0 21.3923 3.20735 24.5996 7.14973 24.5996H16.8503C20.7926 24.5996 24 21.3923 24 17.4499V7.74934C24 3.80696 20.7926 0.599609 16.8503 0.599609ZM21.5856 17.4499C21.5856 20.0651 19.4655 22.1852 16.8503 22.1852H7.14973C4.5345 22.1852 2.4144 20.0651 2.4144 17.4499V7.74934C2.4144 5.13407 4.5345 3.01401 7.14973 3.01401H16.8503C19.4655 3.01401 21.5856 5.13407 21.5856 7.74934V17.4499Z" fill="#999999"/>
<path d="M12 6.39258C8.57729 6.39258 5.79272 9.17715 5.79272 12.5998C5.79272 16.0224 8.57729 18.807 12 18.807C15.4227 18.807 18.2072 16.0225 18.2072 12.5998C18.2072 9.1771 15.4227 6.39258 12 6.39258ZM12 16.3927C9.90523 16.3927 8.20712 14.6946 8.20712 12.5998C8.20712 10.5051 9.90527 8.80698 12 8.80698C14.0947 8.80698 15.7928 10.5051 15.7928 12.5998C15.7928 14.6945 14.0947 16.3927 12 16.3927Z" fill="#999999"/>
<path d="M18.219 7.92634C19.0405 7.92634 19.7064 7.26044 19.7064 6.439C19.7064 5.61757 19.0405 4.95166 18.219 4.95166C17.3976 4.95166 16.7317 5.61757 16.7317 6.439C16.7317 7.26044 17.3976 7.92634 18.219 7.92634Z" fill="#999999"/>
</g>
<defs>
<clipPath id="clip0_869_1826">
<rect width="24" height="24" fill="white" transform="translate(0 0.599609)"/>
</clipPath>
</defs>
</svg>
